STARTFONT 2.1
COMMENT
COMMENT Converted from OpenType font "Patriot-Bold.otf" by "otf2bdf 3.0".
COMMENT
FONT -FreeType-Patriot Bold-Medium-R-Normal--25-180-100-100-P-127-ISO10646-1
SIZE 18 100 100
FONTBOUNDINGBOX 43 33 -10 -7
STARTPROPERTIES 19
FOUNDRY "FreeType"
FAMILY_NAME "Patriot Bold"
WEIGHT_NAME "Medium"
SLANT "R"
SETWIDTH_NAME "Normal"
ADD_STYLE_NAME ""
PIXEL_SIZE 25
POINT_SIZE 180
RESOLUTION_X 100
RESOLUTION_Y 100
SPACING "P"
AVERAGE_WIDTH 127
CHARSET_REGISTRY "ISO10646"
CHARSET_ENCODING "1"
FONT_ASCENT 25
FONT_DESCENT 5
COPYRIGHT "Copyright © 2020 by Behalf Studio. All rights reserved."
_OTF_FONTFILE "Patriot-Bold.otf"
_OTF_PSNAME "Patriot-Bold"
ENDPROPERTIES
CHARS 426
STARTCHAR 0020
ENCODING 32
SWIDTH 360 0
DWIDTH 9 0
BBX 0 0 0 0
BITMAP
ENDCHAR
STARTCHAR 0021
ENCODING 33
SWIDTH 280 0
DWIDTH 7 0
BBX 5 18 1 0
BITMAP
70
70
70
70
70
70
70
70
70
70
70
70
00
00
70
78
F8
70
ENDCHAR
STARTCHAR 0022
ENCODING 34
SWIDTH 320 0
DWIDTH 8 0
BBX 7 6 1 12
BITMAP
EE
EE
EE
EE
EE
EE
ENDCHAR
STARTCHAR 0023
ENCODING 35
SWIDTH 640 0
DWIDTH 16 0
BBX 14 18 1 0
BITMAP
0E38
0E38
0E30
0E70
0E70
7FFC
7FFC
7FFC
1C70
1C60
1CE0
FFF8
FFF8
38E0
38E0
38E0
38C0
39C0
ENDCHAR
STARTCHAR 0024
ENCODING 36
SWIDTH 560 0
DWIDTH 14 0
BBX 11 23 2 -3
BITMAP
0E00
0E00
1E00
7F80
7FC0
FFC0
F1E0
F000
F800
7C00
3F00
1F80
0FC0
03E0
01E0
E1E0
F3E0
FFC0
7FC0
3F80
0E00
0E00
0E00
ENDCHAR
STARTCHAR 0025
ENCODING 37
SWIDTH 920 0
DWIDTH 23 0
BBX 22 18 1 0
BITMAP
1E00C0
3F01C0
7F8380
F3C300
E1C700
738E00
7F9C00
3F1C00
0C3800
007000
0063F0
00E7F8
01C738
018E1C
038E1C
070738
0E07F8
0E03F0
ENDCHAR
STARTCHAR 0026
ENCODING 38
SWIDTH 680 0
DWIDTH 17 0
BBX 15 18 1 0
BITMAP
0F80
1FE0
3FF0
7FF0
7860
7800
7800
7FFE
3FFE
3FFE
7FFE
7838
F078
F078
78F8
7FF0
3FE0
1FC0
ENDCHAR
STARTCHAR 0027
ENCODING 39
SWIDTH 200 0
DWIDTH 5 0
BBX 3 6 1 12
BITMAP
E0
E0
E0
E0
E0
E0
ENDCHAR
STARTCHAR 0028
ENCODING 40
SWIDTH 360 0
DWIDTH 9 0
BBX 7 23 1 -4
BITMAP
0C
1E
1C
38
38
30
70
70
60
60
E0
E0
E0
E0
60
60
70
70
30
38
1C
1C
0C
ENDCHAR
STARTCHAR 0029
ENCODING 41
SWIDTH 360 0
DWIDTH 9 0
BBX 6 24 2 -4
BITMAP
C0
E0
E0
70
70
38
38
18
18
1C
1C
1C
1C
1C
1C
18
38
38
30
70
70
E0
C0
40
ENDCHAR
STARTCHAR 002A
ENCODING 42
SWIDTH 440 0
DWIDTH 11 0
BBX 9 9 1 9
BITMAP
0C00
1C00
4D00
FB80
7F80
1E00
3F00
3700
0200
ENDCHAR
STARTCHAR 002B
ENCODING 43
SWIDTH 560 0
DWIDTH 14 0
BBX 12 12 1 2
BITMAP
0700
0700
0700
0700
FFF0
FFF0
FFF0
0700
0700
0700
0700
0700
ENDCHAR
STARTCHAR 002C
ENCODING 44
SWIDTH 280 0
DWIDTH 7 0
BBX 4 5 2 -3
BITMAP
70
E0
E0
C0
C0
ENDCHAR
STARTCHAR 002D
ENCODING 45
SWIDTH 440 0
DWIDTH 11 0
BBX 9 2 1 5
BITMAP
FF80
FF80
ENDCHAR
STARTCHAR 002E
ENCODING 46
SWIDTH 280 0
DWIDTH 7 0
BBX 5 4 1 0
BITMAP
70
78
F8
70
ENDCHAR
STARTCHAR 002F
ENCODING 47
SWIDTH 440 0
DWIDTH 11 0
BBX 8 18 2 0
BITMAP
07
0E
0E
0E
1C
1C
1C
18
38
38
38
70
70
70
60
E0
E0
E0
ENDCHAR
STARTCHAR 0030
ENCODING 48
SWIDTH 720 0
DWIDTH 18 0
BBX 17 18 1 0
BITMAP
03C000
0FF800
3FFC00
3FFE00
781F00
F00F00
F00700
F00780
E00780
E00780
E00780
F00700
F00F00
780F00
7C3E00
3FFE00
1FFC00
07F000
ENDCHAR
STARTCHAR 0031
ENCODING 49
SWIDTH 320 0
DWIDTH 8 0
BBX 7 18 1 0
BITMAP
1E
1E
FE
FE
FE
1E
1E
1E
1E
1E
1E
1E
1E
1E
1E
1E
1E
1E
ENDCHAR
STARTCHAR 0032
ENCODING 50
SWIDTH 560 0
DWIDTH 14 0
BBX 12 18 1 0
BITMAP
0F00
3FC0
7FE0
7FF0
F0F0
F070
00F0
00F0
01E0
01E0
03C0
0780
0F00
1F00
3E00
7FF0
FFF0
FFF0
ENDCHAR
STARTCHAR 0033
ENCODING 51
SWIDTH 520 0
DWIDTH 13 0
BBX 12 17 1 0
BITMAP
FFE0
FFC0
FF80
0780
0F00
1F00
3FC0
7FC0
3BE0
00F0
00F0
00F0
00F0
71E0
FFE0
7FC0
3F80
ENDCHAR
STARTCHAR 0034
ENCODING 52
SWIDTH 560 0
DWIDTH 14 0
BBX 14 18 0 0
BITMAP
0030
03F0
0FF0
1FF0
3EF0
3CF0
78F0
78F0
70F0
70F0
FFFC
FFFC
FFFC
00F0
00F0
00F0
00F0
00F0
ENDCHAR
STARTCHAR 0035
ENCODING 53
SWIDTH 560 0
DWIDTH 14 0
BBX 12 17 1 0
BITMAP
7FE0
7FE0
7FE0
7000
7000
7F80
7FC0
7FE0
79F0
00F0
00F0
00F0
00F0
31F0
FFE0
7FC0
3F80
ENDCHAR
STARTCHAR 0036
ENCODING 54
SWIDTH 600 0
DWIDTH 15 0
BBX 14 18 1 0
BITMAP
03E0
03C0
0780
0F80
0F00
1F80
3FE0
3FF0
7CF8
783C
F03C
F03C
F03C
F03C
7878
7FF8
3FF0
1FE0
ENDCHAR
STARTCHAR 0037
ENCODING 55
SWIDTH 480 0
DWIDTH 12 0
BBX 12 18 1 0
BITMAP
FFF0
FFF0
FFE0
FFE0
01E0
01C0
03C0
0380
7FE0
7FE0
7FE0
0F00
0F00
1E00
1E00
1C00
3C00
3C00
ENDCHAR
STARTCHAR 0038
ENCODING 56
SWIDTH 560 0
DWIDTH 14 0
BBX 13 18 1 0
BITMAP
0F00
1FC0
3FE0
79E0
78E0
78E0
7FE0
3FC0
7FE0
7FF0
F0F0
E070
E078
F070
F0F0
7FF0
3FE0
1FC0
ENDCHAR
STARTCHAR 0039
ENCODING 57
SWIDTH 600 0
DWIDTH 15 0
BBX 14 18 1 0
BITMAP
0780
1FE0
7FF0
7FF8
F078
F03C
F03C
F03C
F038
F878
7FF8
3FF0
1FE0
03E0
03C0
0780
0F00
1F00
ENDCHAR
STARTCHAR 003A
ENCODING 58
SWIDTH 280 0
DWIDTH 7 0
BBX 5 13 1 0
BITMAP
20
78
F8
70
20
00
00
00
00
70
78
F8
70
ENDCHAR
STARTCHAR 003B
ENCODING 59
SWIDTH 280 0
DWIDTH 7 0
BBX 4 16 2 -3
BITMAP
60
F0
F0
F0
20
00
00
00
00
00
00
70
E0
E0
C0
C0
ENDCHAR
STARTCHAR 003C
ENCODING 60
SWIDTH 560 0
DWIDTH 14 0
BBX 12 11 1 3
BITMAP
0070
03F0
0FE0
7F00
F800
F800
FF00
1FC0
03F0
00F0
0010
ENDCHAR
STARTCHAR 003D
ENCODING 61
SWIDTH 560 0
DWIDTH 14 0
BBX 12 8 1 4
BITMAP
FFF0
FFF0
FFF0
0000
0000
FFF0
FFF0
FFF0
ENDCHAR
STARTCHAR 003E
ENCODING 62
SWIDTH 560 0
DWIDTH 14 0
BBX 12 12 1 2
BITMAP
8000
E000
FC00
7F80
0FF0
01F0
00F0
07F0
3FC0
FE00
F000
8000
ENDCHAR
STARTCHAR 003F
ENCODING 63
SWIDTH 440 0
DWIDTH 11 0
BBX 9 18 1 0
BITMAP
1E00
7F00
7F80
F780
0380
0780
0700
0F00
1E00
1C00
1C00
1C00
0000
0000
1C00
1E00
3E00
1C00
ENDCHAR
STARTCHAR 0040
ENCODING 64
SWIDTH 800 0
DWIDTH 20 0
BBX 18 18 1 0
BITMAP
01F800
07FE00
1E0700
380380
3001C0
71FCC0
63F8C0
63F8C0
E798C0
E718C0
E7B9C0
63FF80
61CF00
700000
380000
1C0300
0FFF00
03FC00
ENDCHAR
STARTCHAR 0041
ENCODING 65
SWIDTH 560 0
DWIDTH 14 0
BBX 13 18 1 0
BITMAP
0F00
3FC0
7FC0
7FE0
F1E0
F0F0
F0F0
F0F0
F0F0
F0F0
F0F0
F0F0
F0F0
F0F0
F0F0
FFF8
FFF8
FFF8
ENDCHAR
STARTCHAR 0042
ENCODING 66
SWIDTH 640 0
DWIDTH 16 0
BBX 14 18 1 0
BITMAP
7F00
7FF0
7FF8
7FFC
783C
783C
783C
FFFC
FFF8
FFF8
FFFC
783C
781C
783C
7FFC
7FFC
7FF8
7FE0
ENDCHAR
STARTCHAR 0043
ENCODING 67
SWIDTH 680 0
DWIDTH 17 0
BBX 16 18 1 0
BITMAP
03F0
0FFC
1FFE
3FFE
7C0C
7800
F000
F000
F000
F000
F000
F000
F800
7C04
3E1E
3FFF
1FFE
07F8
ENDCHAR
STARTCHAR 0044
ENCODING 68
SWIDTH 680 0
DWIDTH 17 0
BBX 15 18 1 0
BITMAP
FC00
FFE0
FFF0
FFF8
F07C
F03E
F01E
F01E
F00E
F00E
F01E
F01E
F01E
F03C
FFFC
FFF8
FFF0
FFC0
ENDCHAR
STARTCHAR 0045
ENCODING 69
SWIDTH 520 0
DWIDTH 13 0
BBX 12 18 1 0
BITMAP
7F80
7F80
7F80
7F80
7800
7800
7800
FFC0
FFC0
FFC0
FFC0
7800
7800
7800
7800
7FF0
7FF0
7FF0
ENDCHAR
STARTCHAR 0046
ENCODING 70
SWIDTH 480 0
DWIDTH 12 0
BBX 11 18 1 0
BITMAP
7FE0
7FE0
7FE0
7FE0
7800
7800
7800
7800
FFC0
FFC0
FFC0
7800
7800
7800
7800
7800
7800
7800
ENDCHAR
STARTCHAR 0047
ENCODING 71
SWIDTH 800 0
DWIDTH 20 0
BBX 20 18 1 0
BITMAP
03F000
0FFC00
1FFF00
3FFE00
7C0C00
780000
F00000
F00000
F07FF0
F07FF0
F07FF0
F003C0
F803C0
7C0780
3E1F80
3FFF00
0FFE00
07F800
ENDCHAR
STARTCHAR 0048
ENCODING 72
SWIDTH 560 0
DWIDTH 14 0
BBX 12 18 1 0
BITMAP
7870
7870
7870
7870
7870
7870
7870
7870
FFF0
FFF0
FFF0
FFF0
7870
7870
7870
7870
7870
7870
ENDCHAR
STARTCHAR 0049
ENCODING 73
SWIDTH 240 0
DWIDTH 6 0
BBX 7 20 0 0
BITMAP
20
30
FC
FE
78
78
48
00
00
78
78
78
78
78
78
78
78
78
78
78
ENDCHAR
STARTCHAR 004A
ENCODING 74
SWIDTH 480 0
DWIDTH 12 0
BBX 11 18 0 0
BITMAP
07E0
07E0
07E0
07E0
01E0
01E0
01E0
01E0
01E0
01E0
01E0
01E0
01E0
01E0
33E0
FFC0
7FC0
3F80
ENDCHAR
STARTCHAR 004B
ENCODING 75
SWIDTH 560 0
DWIDTH 14 0
BBX 12 18 1 0
BITMAP
78E0
78E0
78E0
78E0
78E0
78E0
79E0
FFE0
FFE0
FFE0
FFF0
78F0
7870
7870
7870
7870
7870
7870
ENDCHAR
STARTCHAR 004C
ENCODING 76
SWIDTH 440 0
DWIDTH 11 0
BBX 10 18 1 0
BITMAP
F000
F000
F000
F000
F000
F000
F000
F000
F000
F000
F000
F000
F000
F000
FFC0
FFC0
FFC0
FFC0
ENDCHAR
STARTCHAR 004D
ENCODING 77
SWIDTH 880 0
DWIDTH 22 0
BBX 20 18 1 0
BITMAP
4040F0
7060F0
F878F0
FC7CF0
7E7EF0
7FFFF0
7FFFF0
7BF7F0
79F1F0
78F0F0
7870F0
7870F0
7870F0
7870F0
7870F0
7870F0
7870F0
7870F0
ENDCHAR
STARTCHAR 004E
ENCODING 78
SWIDTH 560 0
DWIDTH 14 0
BBX 12 18 1 0
BITMAP
40F0
70F0
F8F0
FCF0
7EF0
7FF0
7FF0
7FF0
79F0
78F0
78F0
78F0
78F0
78F0
78F0
78F0
78F0
78F0
ENDCHAR
STARTCHAR 004F
ENCODING 79
SWIDTH 800 0
DWIDTH 20 0
BBX 19 18 1 0
BITMAP
03F000
0FFC00
1FFF00
3FFF80
7C0F80
7803C0
F003C0
F001E0
F001E0
F001E0
F001E0
F001C0
F803C0
7C07C0
3E1F80
3FFF00
0FFE00
07FC00
ENDCHAR
STARTCHAR 0050
ENCODING 80
SWIDTH 560 0
DWIDTH 14 0
BBX 13 18 1 0
BITMAP
7E00
7FE0
7FF0
7FF8
7878
7878
7878
7878
FFF8
FFF0
FFE0
FF00
7800
7800
7800
7800
7800
7800
ENDCHAR
STARTCHAR 0051
ENCODING 81
SWIDTH 800 0
DWIDTH 20 0
BBX 19 19 1 -1
BITMAP
03F000
0FFC00
1FFF00
3FFF80
7C0F80
7803C0
F003C0
F001E0
F001E0
F001E0
F001E0
F001C0
F803C0
7C07C0
3E1F80
3FFF80
0FFFC0
07FB80
000100
ENDCHAR
STARTCHAR 0052
ENCODING 82
SWIDTH 600 0
DWIDTH 15 0
BBX 14 18 1 0
BITMAP
7F00
7FE0
7FF8
7FF8
787C
783C
783C
787C
FFF8
FFF8
FFF0
79F0
7878
7878
7878
7878
7878
7878
ENDCHAR
STARTCHAR 0053
ENCODING 83
SWIDTH 520 0
DWIDTH 13 0
BBX 11 18 1 0
BITMAP
1F00
3F80
7FC0
7FE0
F1E0
F000
7800
7E00
3F00
1FC0
07C0
03E0
01E0
71E0
F9E0
FFE0
7FC0
3F80
ENDCHAR
STARTCHAR 0054
ENCODING 84
SWIDTH 520 0
DWIDTH 13 0
BBX 12 18 1 0
BITMAP
FFF0
FFF0
FFF0
FFF0
0F00
0F00
0F00
0F00
0F00
0F00
0F00
0F00
0F00
0F00
0F00
0F00
0F00
0F00
ENDCHAR
STARTCHAR 0055
ENCODING 85
SWIDTH 520 0
DWIDTH 13 0
BBX 11 18 1 0
BITMAP
F0E0
F0E0
F0E0
F0E0
F0E0
F0E0
F0E0
F0E0
F0E0
F0E0
F0E0
F0E0
F0E0
F0E0
F9E0
7FE0
3FC0
1F80
ENDCHAR
STARTCHAR 0056
ENCODING 86
SWIDTH 480 0
DWIDTH 12 0
BBX 11 18 0 0
BITMAP
F0E0
F0E0
F0E0
F0E0
F0E0
F0E0
F0E0
F0E0
F0E0
F1E0
F1E0
71E0
79E0
79E0
3BC0
3FC0
1F80
1F00
ENDCHAR
STARTCHAR 0057
ENCODING 87
SWIDTH 760 0
DWIDTH 19 0
BBX 19 18 0 0
BITMAP
F0E1E0
F0E1E0
F0E1E0
F0E1E0
F0E1E0
F0E1E0
F0E1E0
F0E1E0
F0E1E0
F1E1C0
F1F1C0
71F3C0
79F3C0
79F3C0
3BFF80
3FFF80
1FBF00
1F1E00
ENDCHAR
STARTCHAR 0058
ENCODING 88
SWIDTH 520 0
DWIDTH 13 0
BBX 12 18 1 0
BITMAP
F0F0
F0F0
F0F0
F0F0
F0F0
F1E0
7FE0
7FE0
7FC0
7FE0
79E0
F0F0
F0F0
F0F0
F0F0
F0F0
F0F0
F0F0
ENDCHAR
STARTCHAR 0059
ENCODING 89
SWIDTH 520 0
DWIDTH 13 0
BBX 11 18 1 0
BITMAP
F0E0
F0E0
F0E0
F0E0
F0E0
F0E0
F0E0
F0E0
F0E0
F1E0
FBE0
7FC0
3FC0
1F00
0F00
0F00
0F00
0F00
ENDCHAR
STARTCHAR 005A
ENCODING 90
SWIDTH 520 0
DWIDTH 13 0
BBX 12 18 1 0
BITMAP
FFF0
FFF0
FFF0
FFE0
03E0
03C0
0780
0780
0F00
0F00
1E00
3C00
3C00
7800
7FE0
FFE0
FFE0
FFE0
ENDCHAR
STARTCHAR 005B
ENCODING 91
SWIDTH 280 0
DWIDTH 7 0
BBX 5 25 1 -4
BITMAP
F8
F8
E0
E0
E0
E0
E0
E0
E0
E0
E0
E0
E0
E0
E0
E0
E0
E0
E0
E0
E0
E0
E0
F8
F8
ENDCHAR
STARTCHAR 005C
ENCODING 92
SWIDTH 440 0
DWIDTH 11 0
BBX 7 18 2 0
BITMAP
E0
E0
E0
E0
70
70
70
38
38
38
38
1C
1C
1C
0E
0E
0E
0E
ENDCHAR
STARTCHAR 005D
ENCODING 93
SWIDTH 280 0
DWIDTH 7 0
BBX 5 25 1 -4
BITMAP
F8
F8
38
38
38
38
38
38
38
38
38
38
38
38
38
38
38
38
38
38
38
38
38
F8
F8
ENDCHAR
STARTCHAR 005E
ENCODING 94
SWIDTH 520 0
DWIDTH 13 0
BBX 11 7 1 8
BITMAP
0F00
1F00
1B80
3980
31C0
70E0
E0E0
ENDCHAR
STARTCHAR 005F
ENCODING 95
SWIDTH 520 0
DWIDTH 13 0
BBX 11 2 1 -3
BITMAP
FFE0
FFE0
ENDCHAR
STARTCHAR 0060
ENCODING 96
SWIDTH 160 0
DWIDTH 4 0
BBX 4 3 0 19
BITMAP
E0
70
30
ENDCHAR
STARTCHAR 0061
ENCODING 97
SWIDTH 560 0
DWIDTH 14 0
BBX 13 18 1 0
BITMAP
0F00
3FC0
7FC0
7FE0
F1E0
F0F0
F0F0
F0F0
F0F0
F0F0
F0F0
F0F0
F0F0
F0F0
F0F0
FFF8
FFF8
FFF8
ENDCHAR
STARTCHAR 0062
ENCODING 98
SWIDTH 640 0
DWIDTH 16 0
BBX 14 18 1 0
BITMAP
7F00
7FF0
7FF8
7FFC
783C
783C
783C
FFFC
FFF8
FFF8
FFFC
783C
781C
783C
7FFC
7FFC
7FF8
7FE0
ENDCHAR
STARTCHAR 0063
ENCODING 99
SWIDTH 680 0
DWIDTH 17 0
BBX 16 18 1 0
BITMAP
03F0
0FFC
1FFE
3FFE
7C0C
7800
F000
F000
F000
F000
F000
F000
F800
7C04
3E1E
3FFF
1FFE
07F8
ENDCHAR
STARTCHAR 0064
ENCODING 100
SWIDTH 680 0
DWIDTH 17 0
BBX 15 18 1 0
BITMAP
FC00
FFE0
FFF0
FFF8
F07C
F03E
F01E
F01E
F00E
F00E
F01E
F01E
F01E
F03C
FFFC
FFF8
FFF0
FFC0
ENDCHAR
STARTCHAR 0065
ENCODING 101
SWIDTH 520 0
DWIDTH 13 0
BBX 12 18 1 0
BITMAP
7F80
7F80
7F80
7F80
7800
7800
7800
FFC0
FFC0
FFC0
FFC0
7800
7800
7800
7800
7FF0
7FF0
7FF0
ENDCHAR
STARTCHAR 0066
ENCODING 102
SWIDTH 480 0
DWIDTH 12 0
BBX 11 18 1 0
BITMAP
7FE0
7FE0
7FE0
7FE0
7800
7800
7800
7800
FFC0
FFC0
FFC0
7800
7800
7800
7800
7800
7800
7800
ENDCHAR
STARTCHAR 0067
ENCODING 103
SWIDTH 800 0
DWIDTH 20 0
BBX 20 18 1 0
BITMAP
03F000
0FFC00
1FFF00
3FFE00
7C0C00
780000
F00000
F00000
F07FF0
F07FF0
F07FF0
F003C0
F803C0
7C0780
3E1F80
3FFF00
0FFE00
07F800
ENDCHAR
STARTCHAR 0068
ENCODING 104
SWIDTH 560 0
DWIDTH 14 0
BBX 12 18 1 0
BITMAP
7870
7870
7870
7870
7870
7870
7870
7870
FFF0
FFF0
FFF0
FFF0
7870
7870
7870
7870
7870
7870
ENDCHAR
STARTCHAR 0069
ENCODING 105
SWIDTH 240 0
DWIDTH 6 0
BBX 7 20 0 0
BITMAP
20
30
FC
FE
78
78
48
00
00
78
78
78
78
78
78
78
78
78
78
78
ENDCHAR
STARTCHAR 006A
ENCODING 106
SWIDTH 480 0
DWIDTH 12 0
BBX 11 18 0 0
BITMAP
07E0
07E0
07E0
07E0
01E0
01E0
01E0
01E0
01E0
01E0
01E0
01E0
01E0
01E0
33E0
FFC0
7FC0
3F80
ENDCHAR
STARTCHAR 006B
ENCODING 107
SWIDTH 560 0
DWIDTH 14 0
BBX 12 18 1 0
BITMAP
78E0
78E0
78E0
78E0
78E0
78E0
79E0
FFE0
FFE0
FFE0
FFF0
78F0
7870
7870
7870
7870
7870
7870
ENDCHAR
STARTCHAR 006C
ENCODING 108
SWIDTH 440 0
DWIDTH 11 0
BBX 10 18 1 0
BITMAP
F000
F000
F000
F000
F000
F000
F000
F000
F000
F000
F000
F000
F000
F000
FFC0
FFC0
FFC0
FFC0
ENDCHAR
STARTCHAR 006D
ENCODING 109
SWIDTH 880 0
DWIDTH 22 0
BBX 20 18 1 0
BITMAP
4040F0
7060F0
F878F0
FC7CF0
7E7EF0
7FFFF0
7FFFF0
7BF7F0
79F1F0
78F0F0
7870F0
7870F0
7870F0
7870F0
7870F0
7870F0
7870F0
7870F0
ENDCHAR
STARTCHAR 006E
ENCODING 110
SWIDTH 560 0
DWIDTH 14 0
BBX 12 18 1 0
BITMAP
40F0
70F0
F8F0
FCF0
7EF0
7FF0
7FF0
7FF0
79F0
78F0
78F0
78F0
78F0
78F0
78F0
78F0
78F0
78F0
ENDCHAR
STARTCHAR 006F
ENCODING 111
SWIDTH 800 0
DWIDTH 20 0
BBX 19 18 1 0
BITMAP
03F000
0FFC00
1FFF00
3FFF80
7C0F80
7803C0
F003C0
F001E0
F001E0
F001E0
F001E0
F001C0
F803C0
7C07C0
3E1F80
3FFF00
0FFE00
07FC00
ENDCHAR
STARTCHAR 0070
ENCODING 112
SWIDTH 560 0
DWIDTH 14 0
BBX 13 18 1 0
BITMAP
7E00
7FE0
7FF0
7FF8
7878
7878
7878
7878
FFF8
FFF0
FFE0
FF00
7800
7800
7800
7800
7800
7800
ENDCHAR
STARTCHAR 0071
ENCODING 113
SWIDTH 800 0
DWIDTH 20 0
BBX 19 19 1 -1
BITMAP
03F000
0FFC00
1FFF00
3FFF80
7C0F80
7803C0
F003C0
F001E0
F001E0
F001E0
F001E0
F001C0
F803C0
7C07C0
3E1F80
3FFF80
0FFFC0
07FB80
000100
ENDCHAR
STARTCHAR 0072
ENCODING 114
SWIDTH 600 0
DWIDTH 15 0
BBX 14 18 1 0
BITMAP
7F00
7FE0
7FF8
7FF8
787C
783C
783C
787C
FFF8
FFF8
FFF0
79F0
7878
7878
7878
7878
7878
7878
ENDCHAR
STARTCHAR 0073
ENCODING 115
SWIDTH 520 0
DWIDTH 13 0
BBX 11 18 1 0
BITMAP
1F00
3F80
7FC0
7FE0
F1E0
F000
7800
7E00
3F00
1FC0
07C0
03E0
01E0
71E0
F9E0
FFE0
7FC0
3F80
ENDCHAR
STARTCHAR 0074
ENCODING 116
SWIDTH 520 0
DWIDTH 13 0
BBX 12 18 1 0
BITMAP
FFF0
FFF0
FFF0
FFF0
0F00
0F00
0F00
0F00
0F00
0F00
0F00
0F00
0F00
0F00
0F00
0F00
0F00
0F00
ENDCHAR
STARTCHAR 0075
ENCODING 117
SWIDTH 520 0
DWIDTH 13 0
BBX 11 18 1 0
BITMAP
F0E0
F0E0
F0E0
F0E0
F0E0
F0E0
F0E0
F0E0
F0E0
F0E0
F0E0
F0E0
F0E0
F0E0
F9E0
7FE0
3FC0
1F80
ENDCHAR
STARTCHAR 0076
ENCODING 118
SWIDTH 480 0
DWIDTH 12 0
BBX 11 18 0 0
BITMAP
F0E0
F0E0
F0E0
F0E0
F0E0
F0E0
F0E0
F0E0
F0E0
F1E0
F1E0
71E0
79E0
79E0
3BC0
3FC0
1F80
1F00
ENDCHAR
STARTCHAR 0077
ENCODING 119
SWIDTH 760 0
DWIDTH 19 0
BBX 19 18 0 0
BITMAP
F0E1E0
F0E1E0
F0E1E0
F0E1E0
F0E1E0
F0E1E0
F0E1E0
F0E1E0
F0E1E0
F1E1C0
F1F1C0
71F3C0
79F3C0
79F3C0
3BFF80
3FFF80
1FBF00
1F1E00
ENDCHAR
STARTCHAR 0078
ENCODING 120
SWIDTH 520 0
DWIDTH 13 0
BBX 12 18 1 0
BITMAP
F0F0
F0F0
F0F0
F0F0
F0F0
F1E0
7FE0
7FE0
7FC0
7FE0
79E0
F0F0
F0F0
F0F0
F0F0
F0F0
F0F0
F0F0
ENDCHAR
STARTCHAR 0079
ENCODING 121
SWIDTH 520 0
DWIDTH 13 0
BBX 11 18 1 0
BITMAP
F0E0
F0E0
F0E0
F0E0
F0E0
F0E0
F0E0
F0E0
F0E0
F1E0
FBE0
7FC0
3FC0
1F00
0F00
0F00
0F00
0F00
ENDCHAR
STARTCHAR 007A
ENCODING 122
SWIDTH 520 0
DWIDTH 13 0
BBX 12 18 1 0
BITMAP
FFF0
FFF0
FFF0
FFE0
03E0
03C0
0780
0780
0F00
0F00
1E00
3C00
3C00
7800
7FE0
FFE0
FFE0
FFE0
ENDCHAR
STARTCHAR 007B
ENCODING 123
SWIDTH 320 0
DWIDTH 8 0
BBX 6 25 1 -4
BITMAP
0C
1C
3C
38
38
38
38
38
38
38
30
F0
E0
F0
30
38
38
38
38
38
38
38
3C
1C
1C
ENDCHAR
STARTCHAR 007C
ENCODING 124
SWIDTH 160 0
DWIDTH 4 0
BBX 2 21 1 -3
BITMAP
C0
C0
C0
C0
C0
C0
C0
C0
C0
C0
C0
C0
C0
C0
C0
C0
C0
C0
C0
C0
C0
ENDCHAR
STARTCHAR 007D
ENCODING 125
SWIDTH 320 0
DWIDTH 8 0
BBX 6 25 1 -4
BITMAP
E0
F0
F8
38
38
38
38
38
38
38
38
1C
0C
1C
38
38
38
38
38
38
38
38
F8
F0
E0
ENDCHAR
STARTCHAR 007E
ENCODING 126
SWIDTH 560 0
DWIDTH 14 0
BBX 12 4 1 6
BITMAP
7C00
FFF0
FFF0
00E0
ENDCHAR
STARTCHAR 00A1
ENCODING 161
SWIDTH 280 0
DWIDTH 7 0
BBX 5 18 1 -3
BITMAP
70
F8
F8
70
00
00
70
70
70
70
70
70
70
70
70
70
70
70
ENDCHAR
STARTCHAR 00A2
ENCODING 162
SWIDTH 520 0
DWIDTH 13 0
BBX 11 16 1 1
BITMAP
0600
0600
0700
1FC0
3FC0
7880
7000
E000
E000
7000
7000
7FC0
3FE0
1FC0
0600
0600
ENDCHAR
STARTCHAR 00A3
ENCODING 163
SWIDTH 560 0
DWIDTH 14 0
BBX 12 18 1 0
BITMAP
03E0
0FF0
1FF0
3FF0
3E00
3C00
3C00
3C00
FFC0
FFC0
FFC0
1E00
1E00
1E00
FE00
FFF0
FFF0
FFF0
ENDCHAR
STARTCHAR 00A4
ENCODING 164
SWIDTH 600 0
DWIDTH 15 0
BBX 13 12 1 2
BITMAP
6010
FFF8
7FF0
3870
3030
7030
7030
3030
3870
3FF0
7FF8
6030
ENDCHAR
STARTCHAR 00A5
ENCODING 165
SWIDTH 680 0
DWIDTH 17 0
BBX 15 18 1 0
BITMAP
F83E
783C
7C3C
3C78
3E78
1EF0
1FF0
0FE0
0FE0
3FF8
3FF8
3FF8
0380
3FF8
3FF8
0380
0380
0380
ENDCHAR
STARTCHAR 00A6
ENCODING 166
SWIDTH 160 0
DWIDTH 4 0
BBX 2 21 1 -3
BITMAP
C0
C0
C0
C0
C0
C0
C0
C0
00
00
00
00
00
C0
C0
C0
C0
C0
C0
C0
C0
ENDCHAR
STARTCHAR 00A7
ENCODING 167
SWIDTH 480 0
DWIDTH 12 0
BBX 9 21 2 -3
BITMAP
3C00
7F00
FF80
F780
E200
F000
7C00
3E00
FF00
E780
E380
E380
FF00
7E00
1F00
0F00
2780
F780
FF00
7F00
3E00
ENDCHAR
STARTCHAR 00A8
ENCODING 168
SWIDTH 400 0
DWIDTH 10 0
BBX 11 4 0 19
BITMAP
71C0
F3C0
F3E0
71C0
ENDCHAR
STARTCHAR 00A9
ENCODING 169
SWIDTH 840 0
DWIDTH 21 0
BBX 19 18 1 0
BITMAP
01F800
07FE00
1C0700
380180
3060C0
61F8C0
63F860
470060
C60060
C60060
C70060
679060
63F840
60F0C0
300180
180380
0F0F00
07FC00
ENDCHAR
STARTCHAR 00AB
ENCODING 171
SWIDTH 640 0
DWIDTH 16 0
BBX 12 11 2 2
BITMAP
1C70
3CE0
39E0
71C0
E380
E780
F380
71C0
38E0
1CF0
1E70
ENDCHAR
STARTCHAR 00AC
ENCODING 172
SWIDTH 560 0
DWIDTH 14 0
BBX 12 8 1 2
BITMAP
FFF0
FFF0
FFF0
0070
0070
0070
0070
0070
ENDCHAR
STARTCHAR 00AE
ENCODING 174
SWIDTH 520 0
DWIDTH 13 0
BBX 11 10 1 8
BITMAP
1F00
3180
4E40
4B40
DF60
DE60
4A40
60C0
3180
1F00
ENDCHAR
STARTCHAR 00AF
ENCODING 175
SWIDTH 280 0
DWIDTH 7 0
BBX 7 3 0 19
BITMAP
FE
FE
FE
ENDCHAR
STARTCHAR 00B0
ENCODING 176
SWIDTH 360 0
DWIDTH 9 0
BBX 7 6 1 12
BITMAP
38
7C
C4
C6
6C
7C
ENDCHAR
STARTCHAR 00B1
ENCODING 177
SWIDTH 560 0
DWIDTH 14 0
BBX 12 11 1 2
BITMAP
0700
0700
FFF0
FFF0
FFF0
0700
0700
0000
FFF0
FFF0
FFF0
ENDCHAR
STARTCHAR 00B4
ENCODING 180
SWIDTH 160 0
DWIDTH 4 0
BBX 4 3 0 19
BITMAP
70
60
C0
ENDCHAR
STARTCHAR 00B6
ENCODING 182
SWIDTH 520 0
DWIDTH 13 0
BBX 11 21 1 -3
BITMAP
0660
3E60
7E60
7E60
FE60
FE60
7E60
7E60
7E60
3E60
0660
0260
0260
0260
0260
0260
0260
0260
0260
0260
0260
ENDCHAR
STARTCHAR 00B7
ENCODING 183
SWIDTH 280 0
DWIDTH 7 0
BBX 5 4 1 5
BITMAP
70
78
F8
70
ENDCHAR
STARTCHAR 00B8
ENCODING 184
SWIDTH 200 0
DWIDTH 5 0
BBX 6 6 0 -6
BITMAP
18
18
0C
4C
F8
10
ENDCHAR
STARTCHAR 00BB
ENCODING 187
SWIDTH 640 0
DWIDTH 16 0
BBX 13 11 2 2
BITMAP
E380
73C0
79E0
3CE0
1C70
0E78
1C70
38E0
79C0
73C0
E380
ENDCHAR
STARTCHAR 00BF
ENCODING 191
SWIDTH 440 0
DWIDTH 11 0
BBX 9 18 1 -3
BITMAP
0E00
1E00
1E00
0E00
0000
0000
0E00
1E00
1E00
1C00
3C00
7800
7000
F200
F380
7F80
7F00
1E00
ENDCHAR
STARTCHAR 00C0
ENCODING 192
SWIDTH 560 0
DWIDTH 14 0
BBX 13 22 1 0
BITMAP
1C00
0C00
0600
0000
0F00
3FC0
7FC0
7FE0
F1E0
F0F0
F0F0
F0F0
F0F0
F0F0
F0F0
F0F0
F0F0
F0F0
F0F0
FFF8
FFF8
FFF8
ENDCHAR
STARTCHAR 00C1
ENCODING 193
SWIDTH 560 0
DWIDTH 14 0
BBX 13 22 1 0
BITMAP
0300
0700
0600
0000
0F00
3FC0
7FC0
7FE0
F1E0
F0F0
F0F0
F0F0
F0F0
F0F0
F0F0
F0F0
F0F0
F0F0
F0F0
FFF8
FFF8
FFF8
ENDCHAR
STARTCHAR 00C2
ENCODING 194
SWIDTH 560 0
DWIDTH 14 0
BBX 13 22 1 1
BITMAP
0600
0F00
1F80
0000
0F00
3FC0
7FC0
7FE0
F1E0
F0F0
F0F0
F0F0
F0F0
F0F0
F0F0
F0F0
F0F0
F0F0
F0F0
FFF8
FFF8
FFF8
ENDCHAR
STARTCHAR 00C3
ENCODING 195
SWIDTH 560 0
DWIDTH 14 0
BBX 13 22 1 0
BITMAP
1F80
1F80
0000
0000
0F00
3FC0
7FC0
7FE0
F1E0
F0F0
F0F0
F0F0
F0F0
F0F0
F0F0
F0F0
F0F0
F0F0
F0F0
FFF8
FFF8
FFF8
ENDCHAR
STARTCHAR 00C4
ENCODING 196
SWIDTH 560 0
DWIDTH 14 0
BBX 13 23 1 0
BITMAP
30C0
79E0
79E0
79E0
0000
0F00
3FC0
7FC0
7FE0
F1E0
F0F0
F0F0
F0F0
F0F0
F0F0
F0F0
F0F0
F0F0
F0F0
F0F0
FFF8
FFF8
FFF8
ENDCHAR
STARTCHAR 00C5
ENCODING 197
SWIDTH 560 0
DWIDTH 14 0
BBX 13 24 1 0
BITMAP
0F00
1F00
1980
1F00
0F00
0000
0F00
3FC0
7FC0
7FE0
F1E0
F0F0
F0F0
F0F0
F0F0
F0F0
F0F0
F0F0
F0F0
F0F0
F0F0
FFF8
FFF8
FFF8
ENDCHAR
STARTCHAR 00C7
ENCODING 199
SWIDTH 680 0
DWIDTH 17 0
BBX 16 24 1 -6
BITMAP
03F0
0FFC
1FFE
3FFE
7C0C
7800
F000
F000
F000
F000
F000
F000
F800
7C04
3E1E
3FFF
1FFE
07F8
00C0
00C0
0060
02E0
07C0
0080
ENDCHAR
STARTCHAR 00C8
ENCODING 200
SWIDTH 520 0
DWIDTH 13 0
BBX 12 22 1 0
BITMAP
3800
1800
0C00
0000
7F80
7F80
7F80
7F80
7800
7800
7800
FFC0
FFC0
FFC0
FFC0
7800
7800
7800
7800
7FF0
7FF0
7FF0
ENDCHAR
STARTCHAR 00C9
ENCODING 201
SWIDTH 520 0
DWIDTH 13 0
BBX 12 22 1 0
BITMAP
0700
0E00
0C00
0000
7F80
7F80
7F80
7F80
7800
7800
7800
FFC0
FFC0
FFC0
FFC0
7800
7800
7800
7800
7FF0
7FF0
7FF0
ENDCHAR
STARTCHAR 00CA
ENCODING 202
SWIDTH 520 0
DWIDTH 13 0
BBX 12 22 1 1
BITMAP
0C00
1E00
3F00
0000
7F80
7F80
7F80
7F80
7800
7800
7800
FFC0
FFC0
FFC0
FFC0
7800
7800
7800
7800
7FF0
7FF0
7FF0
ENDCHAR
STARTCHAR 00CB
ENCODING 203
SWIDTH 520 0
DWIDTH 13 0
BBX 12 23 1 0
BITMAP
6180
F3C0
F3C0
F3C0
0000
7F80
7F80
7F80
7F80
7800
7800
7800
FFC0
FFC0
FFC0
FFC0
7800
7800
7800
7800
7FF0
7FF0
7FF0
ENDCHAR
STARTCHAR 00CC
ENCODING 204
SWIDTH 240 0
DWIDTH 6 0
BBX 5 16 0 0
BITMAP
E0
60
30
00
00
78
78
78
78
78
78
78
78
78
78
78
ENDCHAR
STARTCHAR 00CD
ENCODING 205
SWIDTH 240 0
DWIDTH 6 0
BBX 5 16 1 0
BITMAP
18
38
30
00
00
F0
F0
F0
F0
F0
F0
F0
F0
F0
F0
F0
ENDCHAR
STARTCHAR 00CE
ENCODING 206
SWIDTH 240 0
DWIDTH 6 0
BBX 6 16 0 0
BITMAP
10
38
7C
FC
00
78
78
78
78
78
78
78
78
78
78
78
ENDCHAR
STARTCHAR 00CF
ENCODING 207
SWIDTH 240 0
DWIDTH 6 0
BBX 11 16 -2 0
BITMAP
71C0
F3E0
F3E0
71C0
0000
1E00
1E00
1E00
1E00
1E00
1E00
1E00
1E00
1E00
1E00
1E00
ENDCHAR
STARTCHAR 00D1
ENCODING 209
SWIDTH 560 0
DWIDTH 14 0
BBX 12 22 1 0
BITMAP
1F80
1F80
0000
0000
40F0
70F0
F8F0
FCF0
7EF0
7FF0
7FF0
7FF0
79F0
78F0
78F0
78F0
78F0
78F0
78F0
78F0
78F0
78F0
ENDCHAR
STARTCHAR 00D2
ENCODING 210
SWIDTH 800 0
DWIDTH 20 0
BBX 19 22 1 0
BITMAP
018000
00C000
00C000
000000
03F000
0FFC00
1FFF00
3FFF80
7C0F80
7803C0
F003C0
F001E0
F001E0
F001E0
F001E0
F001C0
F803C0
7C07C0
3E1F80
3FFF00
0FFE00
07FC00
ENDCHAR
STARTCHAR 00D3
ENCODING 211
SWIDTH 800 0
DWIDTH 20 0
BBX 19 22 1 0
BITMAP
007000
006000
00E000
000000
03F000
0FFC00
1FFF00
3FFF80
7C0F80
7803C0
F003C0
F001E0
F001E0
F001E0
F001E0
F001C0
F803C0
7C07C0
3E1F80
3FFF00
0FFE00
07FC00
ENDCHAR
STARTCHAR 00D4
ENCODING 212
SWIDTH 800 0
DWIDTH 20 0
BBX 19 23 1 0
BITMAP
004000
00E000
01E000
03F000
000000
03F000
0FFC00
1FFF00
3FFF80
7C0F80
7803C0
F003C0
F001E0
F001E0
F001E0
F001E0
F001C0
F803C0
7C07C0
3E1F80
3FFF00
0FFE00
07FC00
ENDCHAR
STARTCHAR 00D5
ENCODING 213
SWIDTH 800 0
DWIDTH 20 0
BBX 19 22 1 0
BITMAP
03F000
03F000
000000
000000
03F000
0FFC00
1FFF00
3FFF80
7C0F80
7803C0
F003C0
F001E0
F001E0
F001E0
F001E0
F001C0
F803C0
7C07C0
3E1F80
3FFF00
0FFE00
07FC00
ENDCHAR
STARTCHAR 00D6
ENCODING 214
SWIDTH 800 0
DWIDTH 20 0
BBX 19 23 1 0
BITMAP
071C00
0F1E00
0FBE00
071C00
000000
03F000
0FFC00
1FFF00
3FFF80
7C0F80
7803C0
F003C0
F001E0
F001E0
F001E0
F001E0
F001C0
F803C0
7C07C0
3E1F80
3FFF00
0FFE00
07FC00
ENDCHAR
STARTCHAR 00D7
ENCODING 215
SWIDTH 520 0
DWIDTH 13 0
BBX 10 11 2 3
BITMAP
4080
E1C0
F3C0
7F80
3F00
1E00
3F00
7F80
F3C0
E1C0
4080
ENDCHAR
STARTCHAR 00D8
ENCODING 216
SWIDTH 800 0
DWIDTH 20 0
BBX 19 19 1 0
BITMAP
03F180
0FFF80
1FFF80
3FFF80
7C0F80
F81FC0
F03BC0
F073C0
E0E1C0
E1C1E0
F3C1C0
F783C0
F703C0
7E0780
7E1F80
3FFF00
7FFE00
F7F800
600000
ENDCHAR
STARTCHAR 00D9
ENCODING 217
SWIDTH 520 0
DWIDTH 13 0
BBX 11 22 1 0
BITMAP
1C00
0C00
0600
0000
F0E0
F0E0
F0E0
F0E0
F0E0
F0E0
F0E0
F0E0
F0E0
F0E0
F0E0
F0E0
F0E0
F0E0
F9E0
7FE0
3FC0
1F80
ENDCHAR
STARTCHAR 00DA
ENCODING 218
SWIDTH 520 0
DWIDTH 13 0
BBX 11 22 1 0
BITMAP
0300
0700
0600
0000
F0E0
F0E0
F0E0
F0E0
F0E0
F0E0
F0E0
F0E0
F0E0
F0E0
F0E0
F0E0
F0E0
F0E0
F9E0
7FE0
3FC0
1F80
ENDCHAR
STARTCHAR 00DB
ENCODING 219
SWIDTH 520 0
DWIDTH 13 0
BBX 11 22 1 1
BITMAP
0600
0F00
1F80
0000
F0E0
F0E0
F0E0
F0E0
F0E0
F0E0
F0E0
F0E0
F0E0
F0E0
F0E0
F0E0
F0E0
F0E0
F9E0
7FE0
3FC0
1F80
ENDCHAR
STARTCHAR 00DC
ENCODING 220
SWIDTH 520 0
DWIDTH 13 0
BBX 11 23 1 0
BITMAP
30C0
79E0
79E0
79E0
0000
F0E0
F0E0
F0E0
F0E0
F0E0
F0E0
F0E0
F0E0
F0E0
F0E0
F0E0
F0E0
F0E0
F0E0
F9E0
7FE0
3FC0
1F80
ENDCHAR
STARTCHAR 00DD
ENCODING 221
SWIDTH 520 0
DWIDTH 13 0
BBX 11 22 1 0
BITMAP
0300
0700
0600
0000
F0E0
F0E0
F0E0
F0E0
F0E0
F0E0
F0E0
F0E0
F0E0
F1E0
FBE0
7FC0
3FC0
1F00
0F00
0F00
0F00
0F00
ENDCHAR
STARTCHAR 00E0
ENCODING 224
SWIDTH 560 0
DWIDTH 14 0
BBX 13 22 1 0
BITMAP
1C00
0C00
0600
0000
0F00
3FC0
7FC0
7FE0
F1E0
F0F0
F0F0
F0F0
F0F0
F0F0
F0F0
F0F0
F0F0
F0F0
F0F0
FFF8
FFF8
FFF8
ENDCHAR
STARTCHAR 00E1
ENCODING 225
SWIDTH 560 0
DWIDTH 14 0
BBX 13 22 1 0
BITMAP
0300
0700
0600
0000
0F00
3FC0
7FC0
7FE0
F1E0
F0F0
F0F0
F0F0
F0F0
F0F0
F0F0
F0F0
F0F0
F0F0
F0F0
FFF8
FFF8
FFF8
ENDCHAR
STARTCHAR 00E2
ENCODING 226
SWIDTH 560 0
DWIDTH 14 0
BBX 13 22 1 1
BITMAP
0600
0F00
1F80
0000
0F00
3FC0
7FC0
7FE0
F1E0
F0F0
F0F0
F0F0
F0F0
F0F0
F0F0
F0F0
F0F0
F0F0
F0F0
FFF8
FFF8
FFF8
ENDCHAR
STARTCHAR 00E3
ENCODING 227
SWIDTH 560 0
DWIDTH 14 0
BBX 13 22 1 0
BITMAP
1F80
1F80
0000
0000
0F00
3FC0
7FC0
7FE0
F1E0
F0F0
F0F0
F0F0
F0F0
F0F0
F0F0
F0F0
F0F0
F0F0
F0F0
FFF8
FFF8
FFF8
ENDCHAR
STARTCHAR 00E4
ENCODING 228
SWIDTH 560 0
DWIDTH 14 0
BBX 13 23 1 0
BITMAP
30C0
79E0
79E0
79E0
0000
0F00
3FC0
7FC0
7FE0
F1E0
F0F0
F0F0
F0F0
F0F0
F0F0
F0F0
F0F0
F0F0
F0F0
F0F0
FFF8
FFF8
FFF8
ENDCHAR
STARTCHAR 00E5
ENCODING 229
SWIDTH 560 0
DWIDTH 14 0
BBX 13 24 1 0
BITMAP
0F00
1F00
1980
1F00
0F00
0000
0F00
3FC0
7FC0
7FE0
F1E0
F0F0
F0F0
F0F0
F0F0
F0F0
F0F0
F0F0
F0F0
F0F0
F0F0
FFF8
FFF8
FFF8
ENDCHAR
STARTCHAR 00E7
ENCODING 231
SWIDTH 680 0
DWIDTH 17 0
BBX 16 24 1 -6
BITMAP
03F0
0FFC
1FFE
3FFE
7C0C
7800
F000
F000
F000
F000
F000
F000
F800
7C04
3E1E
3FFF
1FFE
07F8
00C0
00C0
0060
02E0
07C0
0080
ENDCHAR
STARTCHAR 00E8
ENCODING 232
SWIDTH 520 0
DWIDTH 13 0
BBX 12 22 1 0
BITMAP
3800
1800
0C00
0000
7F80
7F80
7F80
7F80
7800
7800
7800
FFC0
FFC0
FFC0
FFC0
7800
7800
7800
7800
7FF0
7FF0
7FF0
ENDCHAR
STARTCHAR 00E9
ENCODING 233
SWIDTH 520 0
DWIDTH 13 0
BBX 12 22 1 0
BITMAP
0700
0E00
0C00
0000
7F80
7F80
7F80
7F80
7800
7800
7800
FFC0
FFC0
FFC0
FFC0
7800
7800
7800
7800
7FF0
7FF0
7FF0
ENDCHAR
STARTCHAR 00EA
ENCODING 234
SWIDTH 520 0
DWIDTH 13 0
BBX 12 22 1 1
BITMAP
0C00
1E00
3F00
0000
7F80
7F80
7F80
7F80
7800
7800
7800
FFC0
FFC0
FFC0
FFC0
7800
7800
7800
7800
7FF0
7FF0
7FF0
ENDCHAR
STARTCHAR 00EB
ENCODING 235
SWIDTH 520 0
DWIDTH 13 0
BBX 12 23 1 0
BITMAP
6180
F3C0
F3C0
F3C0
0000
7F80
7F80
7F80
7F80
7800
7800
7800
FFC0
FFC0
FFC0
FFC0
7800
7800
7800
7800
7FF0
7FF0
7FF0
ENDCHAR
STARTCHAR 00EC
ENCODING 236
SWIDTH 240 0
DWIDTH 6 0
BBX 5 16 0 0
BITMAP
E0
60
30
00
00
78
78
78
78
78
78
78
78
78
78
78
ENDCHAR
STARTCHAR 00ED
ENCODING 237
SWIDTH 240 0
DWIDTH 6 0
BBX 5 16 1 0
BITMAP
18
38
30
00
00
F0
F0
F0
F0
F0
F0
F0
F0
F0
F0
F0
ENDCHAR
STARTCHAR 00EE
ENCODING 238
SWIDTH 240 0
DWIDTH 6 0
BBX 6 16 0 0
BITMAP
10
38
7C
FC
00
78
78
78
78
78
78
78
78
78
78
78
ENDCHAR
STARTCHAR 00EF
ENCODING 239
SWIDTH 240 0
DWIDTH 6 0
BBX 11 16 -2 0
BITMAP
71C0
F3E0
F3E0
71C0
0000
1E00
1E00
1E00
1E00
1E00
1E00
1E00
1E00
1E00
1E00
1E00
ENDCHAR
STARTCHAR 00F1
ENCODING 241
SWIDTH 560 0
DWIDTH 14 0
BBX 12 22 1 0
BITMAP
1F80
1F80
0000
0000
40F0
70F0
F8F0
FCF0
7EF0
7FF0
7FF0
7FF0
79F0
78F0
78F0
78F0
78F0
78F0
78F0
78F0
78F0
78F0
ENDCHAR
STARTCHAR 00F2
ENCODING 242
SWIDTH 800 0
DWIDTH 20 0
BBX 19 22 1 0
BITMAP
018000
00C000
00C000
000000
03F000
0FFC00
1FFF00
3FFF80
7C0F80
7803C0
F003C0
F001E0
F001E0
F001E0
F001E0
F001C0
F803C0
7C07C0
3E1F80
3FFF00
0FFE00
07FC00
ENDCHAR
STARTCHAR 00F3
ENCODING 243
SWIDTH 800 0
DWIDTH 20 0
BBX 19 22 1 0
BITMAP
007000
006000
00E000
000000
03F000
0FFC00
1FFF00
3FFF80
7C0F80
7803C0
F003C0
F001E0
F001E0
F001E0
F001E0
F001C0
F803C0
7C07C0
3E1F80
3FFF00
0FFE00
07FC00
ENDCHAR
STARTCHAR 00F4
ENCODING 244
SWIDTH 800 0
DWIDTH 20 0
BBX 19 23 1 0
BITMAP
004000
00E000
01E000
03F000
000000
03F000
0FFC00
1FFF00
3FFF80
7C0F80
7803C0
F003C0
F001E0
F001E0
F001E0
F001E0
F001C0
F803C0
7C07C0
3E1F80
3FFF00
0FFE00
07FC00
ENDCHAR
STARTCHAR 00F5
ENCODING 245
SWIDTH 800 0
DWIDTH 20 0
BBX 19 22 1 0
BITMAP
03F000
03F000
000000
000000
03F000
0FFC00
1FFF00
3FFF80
7C0F80
7803C0
F003C0
F001E0
F001E0
F001E0
F001E0
F001C0
F803C0
7C07C0
3E1F80
3FFF00
0FFE00
07FC00
ENDCHAR
STARTCHAR 00F6
ENCODING 246
SWIDTH 800 0
DWIDTH 20 0
BBX 19 23 1 0
BITMAP
071C00
0F1E00
0FBE00
071C00
000000
03F000
0FFC00
1FFF00
3FFF80
7C0F80
7803C0
F003C0
F001E0
F001E0
F001E0
F001E0
F001C0
F803C0
7C07C0
3E1F80
3FFF00
0FFE00
07FC00
ENDCHAR
STARTCHAR 00F7
ENCODING 247
SWIDTH 560 0
DWIDTH 14 0
BBX 12 12 1 2
BITMAP
0700
0F00
0700
0000
0000
FFF0
FFF0
0000
0000
0700
0F00
0700
ENDCHAR
STARTCHAR 00F8
ENCODING 248
SWIDTH 800 0
DWIDTH 20 0
BBX 19 19 1 0
BITMAP
03F180
0FFF80
1FFF80
3FFF80
7C0F80
F81FC0
F03BC0
F073C0
E0E1C0
E1C1E0
F3C1C0
F783C0
F703C0
7E0780
7E1F80
3FFF00
7FFE00
F7F800
600000
ENDCHAR
STARTCHAR 00F9
ENCODING 249
SWIDTH 520 0
DWIDTH 13 0
BBX 11 22 1 0
BITMAP
1C00
0C00
0600
0000
F0E0
F0E0
F0E0
F0E0
F0E0
F0E0
F0E0
F0E0
F0E0
F0E0
F0E0
F0E0
F0E0
F0E0
F9E0
7FE0
3FC0
1F80
ENDCHAR
STARTCHAR 00FA
ENCODING 250
SWIDTH 520 0
DWIDTH 13 0
BBX 11 22 1 0
BITMAP
0300
0700
0600
0000
F0E0
F0E0
F0E0
F0E0
F0E0
F0E0
F0E0
F0E0
F0E0
F0E0
F0E0
F0E0
F0E0
F0E0
F9E0
7FE0
3FC0
1F80
ENDCHAR
STARTCHAR 00FB
ENCODING 251
SWIDTH 520 0
DWIDTH 13 0
BBX 11 22 1 1
BITMAP
0600
0F00
1F80
0000
F0E0
F0E0
F0E0
F0E0
F0E0
F0E0
F0E0
F0E0
F0E0
F0E0
F0E0
F0E0
F0E0
F0E0
F9E0
7FE0
3FC0
1F80
ENDCHAR
STARTCHAR 00FC
ENCODING 252
SWIDTH 520 0
DWIDTH 13 0
BBX 11 23 1 0
BITMAP
30C0
79E0
79E0
79E0
0000
F0E0
F0E0
F0E0
F0E0
F0E0
F0E0
F0E0
F0E0
F0E0
F0E0
F0E0
F0E0
F0E0
F0E0
F9E0
7FE0
3FC0
1F80
ENDCHAR
STARTCHAR 00FD
ENCODING 253
SWIDTH 520 0
DWIDTH 13 0
BBX 11 22 1 0
BITMAP
0300
0700
0600
0000
F0E0
F0E0
F0E0
F0E0
F0E0
F0E0
F0E0
F0E0
F0E0
F1E0
FBE0
7FC0
3FC0
1F00
0F00
0F00
0F00
0F00
ENDCHAR
STARTCHAR 00FF
ENCODING 255
SWIDTH 520 0
DWIDTH 13 0
BBX 11 23 1 0
BITMAP
30C0
79E0
79E0
71E0
0000
F0E0
F0E0
F0E0
F0E0
F0E0
F0E0
F0E0
F0E0
F0E0
F1E0
FBE0
7FC0
3FC0
1F00
0F00
0F00
0F00
0F00
ENDCHAR
STARTCHAR 0100
ENCODING 256
SWIDTH 560 0
DWIDTH 14 0
BBX 13 22 1 0
BITMAP
3F80
3F80
3F80
0000
0F00
3FC0
7FC0
7FE0
F1E0
F0F0
F0F0
F0F0
F0F0
F0F0
F0F0
F0F0
F0F0
F0F0
F0F0
FFF8
FFF8
FFF8
ENDCHAR
STARTCHAR 0101
ENCODING 257
SWIDTH 560 0
DWIDTH 14 0
BBX 13 22 1 0
BITMAP
3F80
3F80
3F80
0000
0F00
3FC0
7FC0
7FE0
F1E0
F0F0
F0F0
F0F0
F0F0
F0F0
F0F0
F0F0
F0F0
F0F0
F0F0
FFF8
FFF8
FFF8
ENDCHAR
STARTCHAR 0102
ENCODING 258
SWIDTH 560 0
DWIDTH 14 0
BBX 13 22 1 0
BITMAP
1F80
1F00
0E00
0000
0F00
3FC0
7FC0
7FE0
F1E0
F0F0
F0F0
F0F0
F0F0
F0F0
F0F0
F0F0
F0F0
F0F0
F0F0
FFF8
FFF8
FFF8
ENDCHAR
STARTCHAR 0103
ENCODING 259
SWIDTH 560 0
DWIDTH 14 0
BBX 13 22 1 0
BITMAP
1F80
1F00
0E00
0000
0F00
3FC0
7FC0
7FE0
F1E0
F0F0
F0F0
F0F0
F0F0
F0F0
F0F0
F0F0
F0F0
F0F0
F0F0
FFF8
FFF8
FFF8
ENDCHAR
STARTCHAR 0104
ENCODING 260
SWIDTH 560 0
DWIDTH 14 0
BBX 14 23 1 -5
BITMAP
0F00
3FC0
7FC0
7FE0
F1E0
F0F0
F0F0
F0F0
F0F0
F0F0
F0F0
F0F0
F0F0
F0F0
F0F0
FFF8
FFF8
FFF8
0070
0060
00C0
007C
0078
ENDCHAR
STARTCHAR 0105
ENCODING 261
SWIDTH 560 0
DWIDTH 14 0
BBX 14 23 1 -5
BITMAP
0F00
3FC0
7FC0
7FE0
F1E0
F0F0
F0F0
F0F0
F0F0
F0F0
F0F0
F0F0
F0F0
F0F0
F0F0
FFF8
FFF8
FFF8
0070
0060
00C0
007C
0078
ENDCHAR
STARTCHAR 0106
ENCODING 262
SWIDTH 680 0
DWIDTH 17 0
BBX 16 22 1 0
BITMAP
0070
0060
00C0
0000
03F0
0FFC
1FFE
3FFE
7C0C
7800
F000
F000
F000
F000
F000
F000
F800
7C04
3E1E
3FFF
1FFE
07F8
ENDCHAR
STARTCHAR 0107
ENCODING 263
SWIDTH 680 0
DWIDTH 17 0
BBX 16 22 1 0
BITMAP
0070
0060
00C0
0000
03F0
0FFC
1FFE
3FFE
7C0C
7800
F000
F000
F000
F000
F000
F000
F800
7C04
3E1E
3FFF
1FFE
07F8
ENDCHAR
STARTCHAR 010A
ENCODING 266
SWIDTH 680 0
DWIDTH 17 0
BBX 16 23 1 0
BITMAP
00E0
01E0
01E0
00E0
0000
03F0
0FFC
1FFE
3FFE
7C0C
7800
F000
F000
F000
F000
F000
F000
F800
7C04
3E1E
3FFF
1FFE
07F8
ENDCHAR
STARTCHAR 010B
ENCODING 267
SWIDTH 680 0
DWIDTH 17 0
BBX 16 23 1 0
BITMAP
00E0
01E0
01E0
00E0
0000
03F0
0FFC
1FFE
3FFE
7C0C
7800
F000
F000
F000
F000
F000
F000
F800
7C04
3E1E
3FFF
1FFE
07F8
ENDCHAR
STARTCHAR 010C
ENCODING 268
SWIDTH 680 0
DWIDTH 17 0
BBX 16 22 1 0
BITMAP
01F0
00E0
00C0
0000
03F0
0FFC
1FFE
3FFE
7C0C
7800
F000
F000
F000
F000
F000
F000
F800
7C04
3E1E
3FFF
1FFE
07F8
ENDCHAR
STARTCHAR 010D
ENCODING 269
SWIDTH 680 0
DWIDTH 17 0
BBX 16 22 1 0
BITMAP
01F0
00E0
00C0
0000
03F0
0FFC
1FFE
3FFE
7C0C
7800
F000
F000
F000
F000
F000
F000
F800
7C04
3E1E
3FFF
1FFE
07F8
ENDCHAR
STARTCHAR 010E
ENCODING 270
SWIDTH 680 0
DWIDTH 17 0
BBX 15 22 1 0
BITMAP
0F80
0700
0200
0000
FC00
FFE0
FFF0
FFF8
F07C
F03E
F01E
F01E
F00E
F00E
F01E
F01E
F01E
F03C
FFFC
FFF8
FFF0
FFC0
ENDCHAR
STARTCHAR 010F
ENCODING 271
SWIDTH 680 0
DWIDTH 17 0
BBX 15 22 1 0
BITMAP
0F80
0700
0200
0000
FC00
FFE0
FFF0
FFF8
F07C
F03E
F01E
F01E
F00E
F00E
F01E
F01E
F01E
F03C
FFFC
FFF8
FFF0
FFC0
ENDCHAR
STARTCHAR 0110
ENCODING 272
SWIDTH 680 0
DWIDTH 17 0
BBX 16 18 1 0
BITMAP
7E00
7FE0
7FF8
7FFC
787E
781E
780F
FF0F
FF0F
FF0F
FF0F
780F
781E
783E
7FFC
7FFC
7FF0
7FC0
ENDCHAR
STARTCHAR 0111
ENCODING 273
SWIDTH 680 0
DWIDTH 17 0
BBX 16 18 1 0
BITMAP
7E00
7FE0
7FF8
7FFC
787E
781E
780F
FF0F
FF0F
FF0F
FF0F
780F
781E
783E
7FFC
7FFC
7FF0
7FC0
ENDCHAR
STARTCHAR 0112
ENCODING 274
SWIDTH 520 0
DWIDTH 13 0
BBX 12 22 1 0
BITMAP
7F80
7F80
7F80
0000
7F80
7F80
7F80
7F80
7800
7800
7800
FFC0
FFC0
FFC0
FFC0
7800
7800
7800
7800
7FF0
7FF0
7FF0
ENDCHAR
STARTCHAR 0113
ENCODING 275
SWIDTH 520 0
DWIDTH 13 0
BBX 12 22 1 0
BITMAP
7F80
7F80
7F80
0000
7F80
7F80
7F80
7F80
7800
7800
7800
FFC0
FFC0
FFC0
FFC0
7800
7800
7800
7800
7FF0
7FF0
7FF0
ENDCHAR
STARTCHAR 0116
ENCODING 278
SWIDTH 520 0
DWIDTH 13 0
BBX 12 23 1 0
BITMAP
1E00
1E00
1E00
0C00
0000
7F80
7F80
7F80
7F80
7800
7800
7800
FFC0
FFC0
FFC0
FFC0
7800
7800
7800
7800
7FF0
7FF0
7FF0
ENDCHAR
STARTCHAR 0117
ENCODING 279
SWIDTH 520 0
DWIDTH 13 0
BBX 12 23 1 0
BITMAP
1E00
1E00
1E00
0C00
0000
7F80
7F80
7F80
7F80
7800
7800
7800
FFC0
FFC0
FFC0
FFC0
7800
7800
7800
7800
7FF0
7FF0
7FF0
ENDCHAR
STARTCHAR 0118
ENCODING 280
SWIDTH 520 0
DWIDTH 13 0
BBX 13 23 1 -5
BITMAP
7F80
7F80
7F80
7F80
7800
7800
7800
FFC0
FFC0
FFC0
FFC0
7800
7800
7800
7800
7FF0
7FF0
7FF0
00C0
0180
0180
01F8
00F0
ENDCHAR
STARTCHAR 0119
ENCODING 281
SWIDTH 520 0
DWIDTH 13 0
BBX 13 23 1 -5
BITMAP
7F80
7F80
7F80
7F80
7800
7800
7800
FFC0
FFC0
FFC0
FFC0
7800
7800
7800
7800
7FF0
7FF0
7FF0
00C0
0180
0180
01F8
00F0
ENDCHAR
STARTCHAR 011A
ENCODING 282
SWIDTH 520 0
DWIDTH 13 0
BBX 12 22 1 0
BITMAP
3F00
1E00
0C00
0000
7F80
7F80
7F80
7F80
7800
7800
7800
FFC0
FFC0
FFC0
FFC0
7800
7800
7800
7800
7FF0
7FF0
7FF0
ENDCHAR
STARTCHAR 011B
ENCODING 283
SWIDTH 520 0
DWIDTH 13 0
BBX 12 22 1 0
BITMAP
3F00
1E00
0C00
0000
7F80
7F80
7F80
7F80
7800
7800
7800
FFC0
FFC0
FFC0
FFC0
7800
7800
7800
7800
7FF0
7FF0
7FF0
ENDCHAR
STARTCHAR 011E
ENCODING 286
SWIDTH 800 0
DWIDTH 20 0
BBX 20 22 1 0
BITMAP
03F000
01F000
00E000
000000
03F000
0FFC00
1FFF00
3FFE00
7C0C00
780000
F00000
F00000
F07FF0
F07FF0
F07FF0
F003C0
F803C0
7C0780
3E1F80
3FFF00
0FFE00
07F800
ENDCHAR
STARTCHAR 011F
ENCODING 287
SWIDTH 800 0
DWIDTH 20 0
BBX 20 22 1 0
BITMAP
03F000
01F000
00E000
000000
03F000
0FFC00
1FFF00
3FFE00
7C0C00
780000
F00000
F00000
F07FF0
F07FF0
F07FF0
F003C0
F803C0
7C0780
3E1F80
3FFF00
0FFE00
07F800
ENDCHAR
STARTCHAR 0120
ENCODING 288
SWIDTH 800 0
DWIDTH 20 0
BBX 20 23 1 0
BITMAP
01E000
01E000
01E000
00C000
000000
03F000
0FFC00
1FFF00
3FFE00
7C0C00
780000
F00000
F00000
F07FF0
F07FF0
F07FF0
F003C0
F803C0
7C0780
3E1F80
3FFF00
0FFE00
07F800
ENDCHAR
STARTCHAR 0121
ENCODING 289
SWIDTH 800 0
DWIDTH 20 0
BBX 20 23 1 0
BITMAP
01E000
01E000
01E000
00C000
000000
03F000
0FFC00
1FFF00
3FFE00
7C0C00
780000
F00000
F00000
F07FF0
F07FF0
F07FF0
F003C0
F803C0
7C0780
3E1F80
3FFF00
0FFE00
07F800
ENDCHAR
STARTCHAR 0124
ENCODING 292
SWIDTH 560 0
DWIDTH 14 0
BBX 12 23 1 0
BITMAP
0200
0300
0780
0FC0
0000
7870
7870
7870
7870
7870
7870
7870
7870
FFF0
FFF0
FFF0
FFF0
7870
7870
7870
7870
7870
7870
ENDCHAR
STARTCHAR 0125
ENCODING 293
SWIDTH 560 0
DWIDTH 14 0
BBX 12 23 1 0
BITMAP
0200
0300
0780
0FC0
0000
7870
7870
7870
7870
7870
7870
7870
7870
FFF0
FFF0
FFF0
FFF0
7870
7870
7870
7870
7870
7870
ENDCHAR
STARTCHAR 0128
ENCODING 296
SWIDTH 240 0
DWIDTH 6 0
BBX 6 16 0 0
BITMAP
40
FC
FC
00
00
78
78
78
78
78
78
78
78
78
78
78
ENDCHAR
STARTCHAR 0129
ENCODING 297
SWIDTH 240 0
DWIDTH 6 0
BBX 6 16 0 0
BITMAP
40
FC
FC
00
00
78
78
78
78
78
78
78
78
78
78
78
ENDCHAR
STARTCHAR 012A
ENCODING 298
SWIDTH 240 0
DWIDTH 6 0
BBX 7 15 0 0
BITMAP
FE
FE
00
00
78
78
78
78
78
78
78
78
78
78
78
ENDCHAR
STARTCHAR 012B
ENCODING 299
SWIDTH 240 0
DWIDTH 6 0
BBX 7 15 0 0
BITMAP
FE
FE
00
00
78
78
78
78
78
78
78
78
78
78
78
ENDCHAR
STARTCHAR 012E
ENCODING 302
SWIDTH 240 0
DWIDTH 6 0
BBX 7 25 0 -5
BITMAP
20
30
FC
FE
78
78
48
00
00
78
78
78
78
78
78
78
78
78
78
78
70
60
C0
7C
78
ENDCHAR
STARTCHAR 012F
ENCODING 303
SWIDTH 240 0
DWIDTH 6 0
BBX 7 25 0 -5
BITMAP
20
30
FC
FE
78
78
48
00
00
78
78
78
78
78
78
78
78
78
78
78
70
60
C0
7C
78
ENDCHAR
STARTCHAR 0130
ENCODING 304
SWIDTH 240 0
DWIDTH 6 0
BBX 5 17 1 0
BITMAP
20
70
F8
F0
20
00
F0
F0
F0
F0
F0
F0
F0
F0
F0
F0
F0
ENDCHAR
STARTCHAR 0139
ENCODING 313
SWIDTH 440 0
DWIDTH 11 0
BBX 10 22 1 0
BITMAP
3800
3000
6000
0000
F000
F000
F000
F000
F000
F000
F000
F000
F000
F000
F000
F000
F000
F000
FFC0
FFC0
FFC0
FFC0
ENDCHAR
STARTCHAR 013A
ENCODING 314
SWIDTH 440 0
DWIDTH 11 0
BBX 10 22 1 0
BITMAP
3800
3000
6000
0000
F000
F000
F000
F000
F000
F000
F000
F000
F000
F000
F000
F000
F000
F000
FFC0
FFC0
FFC0
FFC0
ENDCHAR
STARTCHAR 013D
ENCODING 317
SWIDTH 440 0
DWIDTH 11 0
BBX 10 22 1 0
BITMAP
F800
7000
2000
0000
F000
F000
F000
F000
F000
F000
F000
F000
F000
F000
F000
F000
F000
F000
FFC0
FFC0
FFC0
FFC0
ENDCHAR
STARTCHAR 013E
ENCODING 318
SWIDTH 440 0
DWIDTH 11 0
BBX 10 22 1 0
BITMAP
F800
7000
2000
0000
F000
F000
F000
F000
F000
F000
F000
F000
F000
F000
F000
F000
F000
F000
FFC0
FFC0
FFC0
FFC0
ENDCHAR
STARTCHAR 0141
ENCODING 321
SWIDTH 520 0
DWIDTH 13 0
BBX 13 18 0 0
BITMAP
1E00
1E00
1E00
1E00
1E00
1E00
1FC0
1FC0
1F00
3E00
FE00
5E00
1E00
1E00
1FF8
1FF8
1FF8
1FF8
ENDCHAR
STARTCHAR 0142
ENCODING 322
SWIDTH 520 0
DWIDTH 13 0
BBX 13 18 0 0
BITMAP
1E00
1E00
1E00
1E00
1E00
1E00
1FC0
1FC0
1F00
3E00
FE00
5E00
1E00
1E00
1FF8
1FF8
1FF8
1FF8
ENDCHAR
STARTCHAR 0143
ENCODING 323
SWIDTH 560 0
DWIDTH 14 0
BBX 12 22 1 0
BITMAP
0380
0300
0700
0000
40F0
70F0
F8F0
FCF0
7EF0
7FF0
7FF0
7FF0
79F0
78F0
78F0
78F0
78F0
78F0
78F0
78F0
78F0
78F0
ENDCHAR
STARTCHAR 0144
ENCODING 324
SWIDTH 560 0
DWIDTH 14 0
BBX 12 22 1 0
BITMAP
0380
0300
0700
0000
40F0
70F0
F8F0
FCF0
7EF0
7FF0
7FF0
7FF0
79F0
78F0
78F0
78F0
78F0
78F0
78F0
78F0
78F0
78F0
ENDCHAR
STARTCHAR 0147
ENCODING 327
SWIDTH 560 0
DWIDTH 14 0
BBX 12 22 1 0
BITMAP
0F80
0700
0200
0000
40F0
70F0
F8F0
FCF0
7EF0
7FF0
7FF0
7FF0
79F0
78F0
78F0
78F0
78F0
78F0
78F0
78F0
78F0
78F0
ENDCHAR
STARTCHAR 0148
ENCODING 328
SWIDTH 560 0
DWIDTH 14 0
BBX 12 22 1 0
BITMAP
0F80
0700
0200
0000
40F0
70F0
F8F0
FCF0
7EF0
7FF0
7FF0
7FF0
79F0
78F0
78F0
78F0
78F0
78F0
78F0
78F0
78F0
78F0
ENDCHAR
STARTCHAR 014C
ENCODING 332
SWIDTH 800 0
DWIDTH 20 0
BBX 19 22 1 0
BITMAP
03F800
03F800
03F800
000000
03F000
0FFC00
1FFF00
3FFF80
7C0F80
7803C0
F003C0
F001E0
F001E0
F001E0
F001E0
F001C0
F803C0
7C07C0
3E1F80
3FFF00
0FFE00
07FC00
ENDCHAR
STARTCHAR 014D
ENCODING 333
SWIDTH 800 0
DWIDTH 20 0
BBX 19 22 1 0
BITMAP
03F800
03F800
03F800
000000
03F000
0FFC00
1FFF00
3FFF80
7C0F80
7803C0
F003C0
F001E0
F001E0
F001E0
F001E0
F001C0
F803C0
7C07C0
3E1F80
3FFF00
0FFE00
07FC00
ENDCHAR
STARTCHAR 0150
ENCODING 336
SWIDTH 800 0
DWIDTH 20 0
BBX 19 22 1 0
BITMAP
01DC00
039800
033000
000000
03F000
0FFC00
1FFF00
3FFF80
7C0F80
7803C0
F003C0
F001E0
F001E0
F001E0
F001E0
F001C0
F803C0
7C07C0
3E1F80
3FFF00
0FFE00
07FC00
ENDCHAR
STARTCHAR 0151
ENCODING 337
SWIDTH 800 0
DWIDTH 20 0
BBX 19 22 1 0
BITMAP
01DC00
039800
033000
000000
03F000
0FFC00
1FFF00
3FFF80
7C0F80
7803C0
F003C0
F001E0
F001E0
F001E0
F001E0
F001C0
F803C0
7C07C0
3E1F80
3FFF00
0FFE00
07FC00
ENDCHAR
STARTCHAR 0154
ENCODING 340
SWIDTH 600 0
DWIDTH 15 0
BBX 14 22 1 0
BITMAP
0180
0380
0300
0000
7F00
7FE0
7FF8
7FF8
787C
783C
783C
787C
FFF8
FFF8
FFF0
79F0
7878
7878
7878
7878
7878
7878
ENDCHAR
STARTCHAR 0155
ENCODING 341
SWIDTH 600 0
DWIDTH 15 0
BBX 14 22 1 0
BITMAP
0180
0380
0300
0000
7F00
7FE0
7FF8
7FF8
787C
783C
783C
787C
FFF8
FFF8
FFF0
79F0
7878
7878
7878
7878
7878
7878
ENDCHAR
STARTCHAR 0158
ENCODING 344
SWIDTH 600 0
DWIDTH 15 0
BBX 14 22 1 0
BITMAP
0F80
0700
0200
0000
7F00
7FE0
7FF8
7FF8
787C
783C
783C
787C
FFF8
FFF8
FFF0
79F0
7878
7878
7878
7878
7878
7878
ENDCHAR
STARTCHAR 0159
ENCODING 345
SWIDTH 600 0
DWIDTH 15 0
BBX 14 22 1 0
BITMAP
0F80
0700
0200
0000
7F00
7FE0
7FF8
7FF8
787C
783C
783C
787C
FFF8
FFF8
FFF0
79F0
7878
7878
7878
7878
7878
7878
ENDCHAR
STARTCHAR 015A
ENCODING 346
SWIDTH 520 0
DWIDTH 13 0
BBX 11 22 1 0
BITMAP
0700
0600
0600
0000
1F00
3F80
7FC0
7FE0
F1E0
F000
7800
7E00
3F00
1FC0
07C0
03E0
01E0
71E0
F9E0
FFE0
7FC0
3F80
ENDCHAR
STARTCHAR 015B
ENCODING 347
SWIDTH 520 0
DWIDTH 13 0
BBX 11 22 1 0
BITMAP
0700
0600
0600
0000
1F00
3F80
7FC0
7FE0
F1E0
F000
7800
7E00
3F00
1FC0
07C0
03E0
01E0
71E0
F9E0
FFE0
7FC0
3F80
ENDCHAR
STARTCHAR 015E
ENCODING 350
SWIDTH 520 0
DWIDTH 13 0
BBX 11 24 1 -6
BITMAP
1F00
3F80
7FC0
7FE0
F1E0
F000
7800
7E00
3F00
1FC0
07C0
03E0
01E0
71E0
F9E0
FFE0
7FC0
3F80
0600
0600
0300
1700
3E00
0400
ENDCHAR
STARTCHAR 015F
ENCODING 351
SWIDTH 520 0
DWIDTH 13 0
BBX 11 24 1 -6
BITMAP
1F00
3F80
7FC0
7FE0
F1E0
F000
7800
7E00
3F00
1FC0
07C0
03E0
01E0
71E0
F9E0
FFE0
7FC0
3F80
0600
0600
0300
1700
3E00
0400
ENDCHAR
STARTCHAR 0160
ENCODING 352
SWIDTH 520 0
DWIDTH 13 0
BBX 11 22 1 0
BITMAP
1F00
0E00
0400
0000
1F00
3F80
7FC0
7FE0
F1E0
F000
7800
7E00
3F00
1FC0
07C0
03E0
01E0
71E0
F9E0
FFE0
7FC0
3F80
ENDCHAR
STARTCHAR 0161
ENCODING 353
SWIDTH 520 0
DWIDTH 13 0
BBX 11 22 1 0
BITMAP
1F00
0E00
0400
0000
1F00
3F80
7FC0
7FE0
F1E0
F000
7800
7E00
3F00
1FC0
07C0
03E0
01E0
71E0
F9E0
FFE0
7FC0
3F80
ENDCHAR
STARTCHAR 0162
ENCODING 354
SWIDTH 520 0
DWIDTH 13 0
BBX 12 24 1 -6
BITMAP
FFF0
FFF0
FFF0
FFF0
0F00
0F00
0F00
0F00
0F00
0F00
0F00
0F00
0F00
0F00
0F00
0F00
0F00
0F00
0400
0E00
0300
3700
3E00
0400
ENDCHAR
STARTCHAR 0163
ENCODING 355
SWIDTH 520 0
DWIDTH 13 0
BBX 12 24 1 -6
BITMAP
FFF0
FFF0
FFF0
FFF0
0F00
0F00
0F00
0F00
0F00
0F00
0F00
0F00
0F00
0F00
0F00
0F00
0F00
0F00
0400
0E00
0300
3700
3E00
0400
ENDCHAR
STARTCHAR 0164
ENCODING 356
SWIDTH 520 0
DWIDTH 13 0
BBX 12 22 1 0
BITMAP
1F00
0E00
0400
0000
FFF0
FFF0
FFF0
FFF0
0F00
0F00
0F00
0F00
0F00
0F00
0F00
0F00
0F00
0F00
0F00
0F00
0F00
0F00
ENDCHAR
STARTCHAR 0165
ENCODING 357
SWIDTH 520 0
DWIDTH 13 0
BBX 12 22 1 0
BITMAP
1F00
0E00
0400
0000
FFF0
FFF0
FFF0
FFF0
0F00
0F00
0F00
0F00
0F00
0F00
0F00
0F00
0F00
0F00
0F00
0F00
0F00
0F00
ENDCHAR
STARTCHAR 0168
ENCODING 360
SWIDTH 520 0
DWIDTH 13 0
BBX 11 22 1 0
BITMAP
3F00
3F00
0000
0000
F0E0
F0E0
F0E0
F0E0
F0E0
F0E0
F0E0
F0E0
F0E0
F0E0
F0E0
F0E0
F0E0
F0E0
F9E0
7FE0
3FC0
1F80
ENDCHAR
STARTCHAR 0169
ENCODING 361
SWIDTH 520 0
DWIDTH 13 0
BBX 11 22 1 0
BITMAP
3F00
3F00
0000
0000
F0E0
F0E0
F0E0
F0E0
F0E0
F0E0
F0E0
F0E0
F0E0
F0E0
F0E0
F0E0
F0E0
F0E0
F9E0
7FE0
3FC0
1F80
ENDCHAR
STARTCHAR 016A
ENCODING 362
SWIDTH 520 0
DWIDTH 13 0
BBX 11 22 1 0
BITMAP
3F80
3F80
3F80
0000
F0E0
F0E0
F0E0
F0E0
F0E0
F0E0
F0E0
F0E0
F0E0
F0E0
F0E0
F0E0
F0E0
F0E0
F9E0
7FE0
3FC0
1F80
ENDCHAR
STARTCHAR 016B
ENCODING 363
SWIDTH 520 0
DWIDTH 13 0
BBX 11 22 1 0
BITMAP
3F80
3F80
3F80
0000
F0E0
F0E0
F0E0
F0E0
F0E0
F0E0
F0E0
F0E0
F0E0
F0E0
F0E0
F0E0
F0E0
F0E0
F9E0
7FE0
3FC0
1F80
ENDCHAR
STARTCHAR 016E
ENCODING 366
SWIDTH 520 0
DWIDTH 13 0
BBX 11 24 1 0
BITMAP
0E00
1F00
1900
1F00
0F00
0000
F0E0
F0E0
F0E0
F0E0
F0E0
F0E0
F0E0
F0E0
F0E0
F0E0
F0E0
F0E0
F0E0
F0E0
F9E0
7FE0
3FC0
1F80
ENDCHAR
STARTCHAR 016F
ENCODING 367
SWIDTH 520 0
DWIDTH 13 0
BBX 11 24 1 0
BITMAP
0E00
1F00
1900
1F00
0F00
0000
F0E0
F0E0
F0E0
F0E0
F0E0
F0E0
F0E0
F0E0
F0E0
F0E0
F0E0
F0E0
F0E0
F0E0
F9E0
7FE0
3FC0
1F80
ENDCHAR
STARTCHAR 0170
ENCODING 368
SWIDTH 520 0
DWIDTH 13 0
BBX 11 22 1 0
BITMAP
1CC0
1980
3980
0000
F0E0
F0E0
F0E0
F0E0
F0E0
F0E0
F0E0
F0E0
F0E0
F0E0
F0E0
F0E0
F0E0
F0E0
F9E0
7FE0
3FC0
1F80
ENDCHAR
STARTCHAR 0171
ENCODING 369
SWIDTH 520 0
DWIDTH 13 0
BBX 11 22 1 0
BITMAP
1CC0
1980
3980
0000
F0E0
F0E0
F0E0
F0E0
F0E0
F0E0
F0E0
F0E0
F0E0
F0E0
F0E0
F0E0
F0E0
F0E0
F9E0
7FE0
3FC0
1F80
ENDCHAR
STARTCHAR 0172
ENCODING 370
SWIDTH 520 0
DWIDTH 13 0
BBX 11 23 1 -5
BITMAP
F0E0
F0E0
F0E0
F0E0
F0E0
F0E0
F0E0
F0E0
F0E0
F0E0
F0E0
F0E0
F0E0
F0E0
F9E0
7FE0
3FC0
1F80
0C00
0C00
1800
0F80
0F00
ENDCHAR
STARTCHAR 0173
ENCODING 371
SWIDTH 520 0
DWIDTH 13 0
BBX 11 23 1 -5
BITMAP
F0E0
F0E0
F0E0
F0E0
F0E0
F0E0
F0E0
F0E0
F0E0
F0E0
F0E0
F0E0
F0E0
F0E0
F9E0
7FE0
3FC0
1F80
0C00
0C00
1800
0F80
0F00
ENDCHAR
STARTCHAR 0176
ENCODING 374
SWIDTH 520 0
DWIDTH 13 0
BBX 11 23 1 0
BITMAP
0400
0600
0F00
1F80
0000
F0E0
F0E0
F0E0
F0E0
F0E0
F0E0
F0E0
F0E0
F0E0
F1E0
FBE0
7FC0
3FC0
1F00
0F00
0F00
0F00
0F00
ENDCHAR
STARTCHAR 0177
ENCODING 375
SWIDTH 520 0
DWIDTH 13 0
BBX 11 23 1 0
BITMAP
0400
0600
0F00
1F80
0000
F0E0
F0E0
F0E0
F0E0
F0E0
F0E0
F0E0
F0E0
F0E0
F1E0
FBE0
7FC0
3FC0
1F00
0F00
0F00
0F00
0F00
ENDCHAR
STARTCHAR 0178
ENCODING 376
SWIDTH 520 0
DWIDTH 13 0
BBX 11 23 1 0
BITMAP
30C0
79E0
79E0
71E0
0000
F0E0
F0E0
F0E0
F0E0
F0E0
F0E0
F0E0
F0E0
F0E0
F1E0
FBE0
7FC0
3FC0
1F00
0F00
0F00
0F00
0F00
ENDCHAR
STARTCHAR 0179
ENCODING 377
SWIDTH 520 0
DWIDTH 13 0
BBX 12 22 1 0
BITMAP
0300
0700
0600
0000
FFF0
FFF0
FFF0
FFE0
03E0
03C0
0780
0780
0F00
0F00
1E00
3C00
3C00
7800
7FE0
FFE0
FFE0
FFE0
ENDCHAR
STARTCHAR 017A
ENCODING 378
SWIDTH 520 0
DWIDTH 13 0
BBX 12 22 1 0
BITMAP
0300
0700
0600
0000
FFF0
FFF0
FFF0
FFE0
03E0
03C0
0780
0780
0F00
0F00
1E00
3C00
3C00
7800
7FE0
FFE0
FFE0
FFE0
ENDCHAR
STARTCHAR 017B
ENCODING 379
SWIDTH 520 0
DWIDTH 13 0
BBX 12 23 1 0
BITMAP
0F00
0F00
0F00
0600
0000
FFF0
FFF0
FFF0
FFE0
03E0
03C0
0780
0780
0F00
0F00
1E00
3C00
3C00
7800
7FE0
FFE0
FFE0
FFE0
ENDCHAR
STARTCHAR 017C
ENCODING 380
SWIDTH 520 0
DWIDTH 13 0
BBX 12 23 1 0
BITMAP
0F00
0F00
0F00
0600
0000
FFF0
FFF0
FFF0
FFE0
03E0
03C0
0780
0780
0F00
0F00
1E00
3C00
3C00
7800
7FE0
FFE0
FFE0
FFE0
ENDCHAR
STARTCHAR 017D
ENCODING 381
SWIDTH 520 0
DWIDTH 13 0
BBX 12 22 1 0
BITMAP
1F00
0E00
0600
0000
FFF0
FFF0
FFF0
FFE0
03E0
03C0
0780
0780
0F00
0F00
1E00
3C00
3C00
7800
7FE0
FFE0
FFE0
FFE0
ENDCHAR
STARTCHAR 017E
ENCODING 382
SWIDTH 520 0
DWIDTH 13 0
BBX 12 22 1 0
BITMAP
1F00
0E00
0600
0000
FFF0
FFF0
FFF0
FFE0
03E0
03C0
0780
0780
0F00
0F00
1E00
3C00
3C00
7800
7FE0
FFE0
FFE0
FFE0
ENDCHAR
STARTCHAR 01A0
ENCODING 416
SWIDTH 800 0
DWIDTH 20 0
BBX 19 20 1 0
BITMAP
0001C0
0001C0
03F1C0
0FFD80
1FFF00
3FFF80
7C0F80
7803C0
F003C0
F001E0
F001E0
F001E0
F001E0
F001C0
F803C0
7C07C0
3E1F80
3FFF00
0FFE00
07FC00
ENDCHAR
STARTCHAR 01A1
ENCODING 417
SWIDTH 800 0
DWIDTH 20 0
BBX 19 20 1 0
BITMAP
0001C0
0001C0
03F1C0
0FFD80
1FFF00
3FFF80
7C0F80
7803C0
F003C0
F001E0
F001E0
F001E0
F001E0
F001C0
F803C0
7C07C0
3E1F80
3FFF00
0FFE00
07FC00
ENDCHAR
STARTCHAR 01AF
ENCODING 431
SWIDTH 520 0
DWIDTH 13 0
BBX 15 20 1 0
BITMAP
000E
000C
F0EC
F0EC
F0E0
F0E0
F0E0
F0E0
F0E0
F0E0
F0E0
F0E0
F0E0
F0E0
F0E0
F0E0
F9E0
7FE0
3FC0
1F80
ENDCHAR
STARTCHAR 01B0
ENCODING 432
SWIDTH 520 0
DWIDTH 13 0
BBX 15 20 1 0
BITMAP
000E
000C
F0EC
F0EC
F0E0
F0E0
F0E0
F0E0
F0E0
F0E0
F0E0
F0E0
F0E0
F0E0
F0E0
F0E0
F9E0
7FE0
3FC0
1F80
ENDCHAR
STARTCHAR 01CD
ENCODING 461
SWIDTH 560 0
DWIDTH 14 0
BBX 13 22 1 0
BITMAP
1F80
0E00
0600
0000
0F00
3FC0
7FC0
7FE0
F1E0
F0F0
F0F0
F0F0
F0F0
F0F0
F0F0
F0F0
F0F0
F0F0
F0F0
FFF8
FFF8
FFF8
ENDCHAR
STARTCHAR 01CE
ENCODING 462
SWIDTH 560 0
DWIDTH 14 0
BBX 13 22 1 0
BITMAP
1F80
0E00
0600
0000
0F00
3FC0
7FC0
7FE0
F1E0
F0F0
F0F0
F0F0
F0F0
F0F0
F0F0
F0F0
F0F0
F0F0
F0F0
FFF8
FFF8
FFF8
ENDCHAR
STARTCHAR 01CF
ENCODING 463
SWIDTH 240 0
DWIDTH 6 0
BBX 6 16 0 0
BITMAP
FC
7C
38
10
00
78
78
78
78
78
78
78
78
78
78
78
ENDCHAR
STARTCHAR 01D0
ENCODING 464
SWIDTH 240 0
DWIDTH 6 0
BBX 6 16 0 0
BITMAP
FC
7C
38
10
00
78
78
78
78
78
78
78
78
78
78
78
ENDCHAR
STARTCHAR 01D1
ENCODING 465
SWIDTH 800 0
DWIDTH 20 0
BBX 19 22 1 0
BITMAP
01F000
00E000
004000
000000
03F000
0FFC00
1FFF00
3FFF80
7C0F80
7803C0
F003C0
F001E0
F001E0
F001E0
F001E0
F001C0
F803C0
7C07C0
3E1F80
3FFF00
0FFE00
07FC00
ENDCHAR
STARTCHAR 01D2
ENCODING 466
SWIDTH 800 0
DWIDTH 20 0
BBX 19 22 1 0
BITMAP
01F000
00E000
004000
000000
03F000
0FFC00
1FFF00
3FFF80
7C0F80
7803C0
F003C0
F001E0
F001E0
F001E0
F001E0
F001C0
F803C0
7C07C0
3E1F80
3FFF00
0FFE00
07FC00
ENDCHAR
STARTCHAR 01D3
ENCODING 467
SWIDTH 520 0
DWIDTH 13 0
BBX 11 22 1 0
BITMAP
1F00
0E00
0600
0000
F0E0
F0E0
F0E0
F0E0
F0E0
F0E0
F0E0
F0E0
F0E0
F0E0
F0E0
F0E0
F0E0
F0E0
F9E0
7FE0
3FC0
1F80
ENDCHAR
STARTCHAR 01D4
ENCODING 468
SWIDTH 520 0
DWIDTH 13 0
BBX 11 22 1 0
BITMAP
1F00
0E00
0600
0000
F0E0
F0E0
F0E0
F0E0
F0E0
F0E0
F0E0
F0E0
F0E0
F0E0
F0E0
F0E0
F0E0
F0E0
F9E0
7FE0
3FC0
1F80
ENDCHAR
STARTCHAR 02C6
ENCODING 710
SWIDTH 320 0
DWIDTH 8 0
BBX 6 3 0 20
BITMAP
30
78
FC
ENDCHAR
STARTCHAR 02C7
ENCODING 711
SWIDTH 240 0
DWIDTH 6 0
BBX 6 3 0 19
BITMAP
FC
38
30
ENDCHAR
STARTCHAR 02D8
ENCODING 728
SWIDTH 280 0
DWIDTH 7 0
BBX 6 3 0 19
BITMAP
FC
F8
70
ENDCHAR
STARTCHAR 02D9
ENCODING 729
SWIDTH 160 0
DWIDTH 4 0
BBX 4 4 0 19
BITMAP
F0
F0
F0
60
ENDCHAR
STARTCHAR 02DA
ENCODING 730
SWIDTH 200 0
DWIDTH 5 0
BBX 5 5 0 19
BITMAP
70
F8
C8
F8
70
ENDCHAR
STARTCHAR 02DB
ENCODING 731
SWIDTH 200 0
DWIDTH 5 0
BBX 6 5 0 -5
BITMAP
70
C0
C8
FC
78
ENDCHAR
STARTCHAR 02DC
ENCODING 732
SWIDTH 200 0
DWIDTH 5 0
BBX 6 2 0 20
BITMAP
FC
FC
ENDCHAR
STARTCHAR 02DD
ENCODING 733
SWIDTH 320 0
DWIDTH 8 0
BBX 8 3 0 19
BITMAP
77
66
CC
ENDCHAR
STARTCHAR 0300
ENCODING 768
SWIDTH 0 0
DWIDTH 0 0
BBX 4 3 -4 19
BITMAP
E0
60
30
ENDCHAR
STARTCHAR 0301
ENCODING 769
SWIDTH 0 0
DWIDTH 0 0
BBX 4 3 -4 19
BITMAP
70
E0
C0
ENDCHAR
STARTCHAR 0302
ENCODING 770
SWIDTH 0 0
DWIDTH 0 0
BBX 6 3 -6 20
BITMAP
30
78
FC
ENDCHAR
STARTCHAR 0303
ENCODING 771
SWIDTH 0 0
DWIDTH 0 0
BBX 6 2 -6 20
BITMAP
FC
FC
ENDCHAR
STARTCHAR 0304
ENCODING 772
SWIDTH 0 0
DWIDTH 0 0
BBX 7 3 -7 19
BITMAP
FE
FE
FE
ENDCHAR
STARTCHAR 0306
ENCODING 774
SWIDTH 0 0
DWIDTH 0 0
BBX 6 3 -6 19
BITMAP
FC
7C
38
ENDCHAR
STARTCHAR 0307
ENCODING 775
SWIDTH 0 0
DWIDTH 0 0
BBX 4 4 -4 19
BITMAP
F0
F0
F0
60
ENDCHAR
STARTCHAR 0308
ENCODING 776
SWIDTH 0 0
DWIDTH 0 0
BBX 10 4 -10 19
BITMAP
6180
F3C0
F3C0
F3C0
ENDCHAR
STARTCHAR 0309
ENCODING 777
SWIDTH 0 0
DWIDTH 0 0
BBX 3 5 -3 19
BITMAP
60
60
E0
C0
E0
ENDCHAR
STARTCHAR 030A
ENCODING 778
SWIDTH 0 0
DWIDTH 0 0
BBX 5 5 -5 19
BITMAP
70
F8
98
D8
70
ENDCHAR
STARTCHAR 030B
ENCODING 779
SWIDTH 0 0
DWIDTH 0 0
BBX 7 3 -8 19
BITMAP
66
CE
CC
ENDCHAR
STARTCHAR 030C
ENCODING 780
SWIDTH 0 0
DWIDTH 0 0
BBX 6 3 -6 19
BITMAP
FC
70
30
ENDCHAR
STARTCHAR 031B
ENCODING 795
SWIDTH 0 0
DWIDTH 0 0
BBX 3 4 -3 16
BITMAP
E0
E0
C0
C0
ENDCHAR
STARTCHAR 0323
ENCODING 803
SWIDTH 0 0
DWIDTH 0 0
BBX 4 4 -4 -7
BITMAP
F0
F0
F0
60
ENDCHAR
STARTCHAR 0326
ENCODING 806
SWIDTH 0 0
DWIDTH 0 0
BBX 4 5 -4 -6
BITMAP
70
70
E0
E0
C0
ENDCHAR
STARTCHAR 0327
ENCODING 807
SWIDTH 0 0
DWIDTH 0 0
BBX 5 6 -5 -6
BITMAP
30
30
18
D8
F8
20
ENDCHAR
STARTCHAR 0328
ENCODING 808
SWIDTH 0 0
DWIDTH 0 0
BBX 6 5 -6 -5
BITMAP
70
C0
C8
FC
78
ENDCHAR
STARTCHAR 0335
ENCODING 821
SWIDTH 0 0
DWIDTH 0 0
BBX 9 3 -9 4
BITMAP
FF80
FF80
FF80
ENDCHAR
STARTCHAR 1EA0
ENCODING 7840
SWIDTH 560 0
DWIDTH 14 0
BBX 13 25 1 -7
BITMAP
0F00
3FC0
7FC0
7FE0
F1E0
F0F0
F0F0
F0F0
F0F0
F0F0
F0F0
F0F0
F0F0
F0F0
F0F0
FFF8
FFF8
FFF8
0000
0000
0000
0F00
0F00
0F00
0600
ENDCHAR
STARTCHAR 1EA1
ENCODING 7841
SWIDTH 560 0
DWIDTH 14 0
BBX 13 25 1 -7
BITMAP
0F00
3FC0
7FC0
7FE0
F1E0
F0F0
F0F0
F0F0
F0F0
F0F0
F0F0
F0F0
F0F0
F0F0
F0F0
FFF8
FFF8
FFF8
0000
0000
0000
0F00
0F00
0F00
0600
ENDCHAR
STARTCHAR 1EA2
ENCODING 7842
SWIDTH 560 0
DWIDTH 14 0
BBX 13 24 1 0
BITMAP
0600
0600
0600
0E00
0600
0000
0F00
3FC0
7FC0
7FE0
F1E0
F0F0
F0F0
F0F0
F0F0
F0F0
F0F0
F0F0
F0F0
F0F0
F0F0
FFF8
FFF8
FFF8
ENDCHAR
STARTCHAR 1EA3
ENCODING 7843
SWIDTH 560 0
DWIDTH 14 0
BBX 13 24 1 0
BITMAP
0600
0600
0600
0E00
0600
0000
0F00
3FC0
7FC0
7FE0
F1E0
F0F0
F0F0
F0F0
F0F0
F0F0
F0F0
F0F0
F0F0
F0F0
F0F0
FFF8
FFF8
FFF8
ENDCHAR
STARTCHAR 1EA4
ENCODING 7844
SWIDTH 560 0
DWIDTH 14 0
BBX 13 24 1 0
BITMAP
0030
0060
0660
0F00
1F80
0000
0F00
3FC0
7FC0
7FE0
F1E0
F0F0
F0F0
F0F0
F0F0
F0F0
F0F0
F0F0
F0F0
F0F0
F0F0
FFF8
FFF8
FFF8
ENDCHAR
STARTCHAR 1EA5
ENCODING 7845
SWIDTH 560 0
DWIDTH 14 0
BBX 13 24 1 0
BITMAP
0030
0060
0660
0F00
1F80
0000
0F00
3FC0
7FC0
7FE0
F1E0
F0F0
F0F0
F0F0
F0F0
F0F0
F0F0
F0F0
F0F0
F0F0
F0F0
FFF8
FFF8
FFF8
ENDCHAR
STARTCHAR 1EA6
ENCODING 7846
SWIDTH 560 0
DWIDTH 14 0
BBX 13 24 1 0
BITMAP
C000
E000
6600
0F00
1F80
0000
0F00
3FC0
7FC0
7FE0
F1E0
F0F0
F0F0
F0F0
F0F0
F0F0
F0F0
F0F0
F0F0
F0F0
F0F0
FFF8
FFF8
FFF8
ENDCHAR
STARTCHAR 1EA7
ENCODING 7847
SWIDTH 560 0
DWIDTH 14 0
BBX 13 24 1 0
BITMAP
C000
E000
6600
0F00
1F80
0000
0F00
3FC0
7FC0
7FE0
F1E0
F0F0
F0F0
F0F0
F0F0
F0F0
F0F0
F0F0
F0F0
F0F0
F0F0
FFF8
FFF8
FFF8
ENDCHAR
STARTCHAR 1EA8
ENCODING 7848
SWIDTH 560 0
DWIDTH 14 0
BBX 13 26 1 0
BITMAP
0060
0060
0060
00E0
06E0
0F00
1F80
0000
0F00
3FC0
7FC0
7FE0
F1E0
F0F0
F0F0
F0F0
F0F0
F0F0
F0F0
F0F0
F0F0
F0F0
F0F0
FFF8
FFF8
FFF8
ENDCHAR
STARTCHAR 1EA9
ENCODING 7849
SWIDTH 560 0
DWIDTH 14 0
BBX 13 26 1 0
BITMAP
0060
0060
0060
00E0
06E0
0F00
1F80
0000
0F00
3FC0
7FC0
7FE0
F1E0
F0F0
F0F0
F0F0
F0F0
F0F0
F0F0
F0F0
F0F0
F0F0
F0F0
FFF8
FFF8
FFF8
ENDCHAR
STARTCHAR 1EAA
ENCODING 7850
SWIDTH 560 0
DWIDTH 14 0
BBX 14 24 1 0
BITMAP
00FC
00FC
0608
0F00
1F80
0000
0F00
3FC0
7FC0
7FE0
F1E0
F0F0
F0F0
F0F0
F0F0
F0F0
F0F0
F0F0
F0F0
F0F0
F0F0
FFF8
FFF8
FFF8
ENDCHAR
STARTCHAR 1EAB
ENCODING 7851
SWIDTH 560 0
DWIDTH 14 0
BBX 14 24 1 0
BITMAP
00FC
00FC
0608
0F00
1F80
0000
0F00
3FC0
7FC0
7FE0
F1E0
F0F0
F0F0
F0F0
F0F0
F0F0
F0F0
F0F0
F0F0
F0F0
F0F0
FFF8
FFF8
FFF8
ENDCHAR
STARTCHAR 1EAC
ENCODING 7852
SWIDTH 560 0
DWIDTH 14 0
BBX 13 29 1 -6
BITMAP
0600
0F00
1F80
0000
0F00
3FC0
7FC0
7FE0
F1E0
F0F0
F0F0
F0F0
F0F0
F0F0
F0F0
F0F0
F0F0
F0F0
F0F0
FFF8
FFF8
FFF8
0000
0000
0000
0F00
0F00
0F00
0600
ENDCHAR
STARTCHAR 1EAD
ENCODING 7853
SWIDTH 560 0
DWIDTH 14 0
BBX 13 29 1 -6
BITMAP
0600
0F00
1F80
0000
0F00
3FC0
7FC0
7FE0
F1E0
F0F0
F0F0
F0F0
F0F0
F0F0
F0F0
F0F0
F0F0
F0F0
F0F0
FFF8
FFF8
FFF8
0000
0000
0000
0F00
0F00
0F00
0600
ENDCHAR
STARTCHAR 1EAE
ENCODING 7854
SWIDTH 560 0
DWIDTH 14 0
BBX 13 24 1 0
BITMAP
0038
0030
1FB0
1F00
0E00
0000
0F00
3FC0
7FC0
7FE0
F1E0
F0F0
F0F0
F0F0
F0F0
F0F0
F0F0
F0F0
F0F0
F0F0
F0F0
FFF8
FFF8
FFF8
ENDCHAR
STARTCHAR 1EAF
ENCODING 7855
SWIDTH 560 0
DWIDTH 14 0
BBX 13 24 1 0
BITMAP
0038
0030
1FB0
1F00
0E00
0000
0F00
3FC0
7FC0
7FE0
F1E0
F0F0
F0F0
F0F0
F0F0
F0F0
F0F0
F0F0
F0F0
F0F0
F0F0
FFF8
FFF8
FFF8
ENDCHAR
STARTCHAR 1EB0
ENCODING 7856
SWIDTH 560 0
DWIDTH 14 0
BBX 14 24 0 0
BITMAP
E000
6000
7FC0
0F80
0700
0000
0780
1FE0
3FE0
3FF0
78F0
7878
7878
7878
7878
7878
7878
7878
7878
7878
7878
7FFC
7FFC
7FFC
ENDCHAR
STARTCHAR 1EB1
ENCODING 7857
SWIDTH 560 0
DWIDTH 14 0
BBX 14 24 0 0
BITMAP
E000
6000
7FC0
0F80
0700
0000
0780
1FE0
3FE0
3FF0
78F0
7878
7878
7878
7878
7878
7878
7878
7878
7878
7878
7FFC
7FFC
7FFC
ENDCHAR
STARTCHAR 1EB2
ENCODING 7858
SWIDTH 560 0
DWIDTH 14 0
BBX 13 25 1 0
BITMAP
0030
0030
0030
1FF0
1F30
0E00
0000
0F00
3FC0
7FC0
7FE0
F1E0
F0F0
F0F0
F0F0
F0F0
F0F0
F0F0
F0F0
F0F0
F0F0
F0F0
FFF8
FFF8
FFF8
ENDCHAR
STARTCHAR 1EB3
ENCODING 7859
SWIDTH 560 0
DWIDTH 14 0
BBX 13 25 1 0
BITMAP
0030
0030
0030
1FF0
1F30
0E00
0000
0F00
3FC0
7FC0
7FE0
F1E0
F0F0
F0F0
F0F0
F0F0
F0F0
F0F0
F0F0
F0F0
F0F0
F0F0
FFF8
FFF8
FFF8
ENDCHAR
STARTCHAR 1EB4
ENCODING 7860
SWIDTH 560 0
DWIDTH 14 0
BBX 13 25 1 0
BITMAP
07E0
07E0
0040
1F80
1F00
0E00
0000
0F00
3FC0
7FC0
7FE0
F1E0
F0F0
F0F0
F0F0
F0F0
F0F0
F0F0
F0F0
F0F0
F0F0
F0F0
FFF8
FFF8
FFF8
ENDCHAR
STARTCHAR 1EB5
ENCODING 7861
SWIDTH 560 0
DWIDTH 14 0
BBX 13 25 1 0
BITMAP
07E0
07E0
0040
1F80
1F00
0E00
0000
0F00
3FC0
7FC0
7FE0
F1E0
F0F0
F0F0
F0F0
F0F0
F0F0
F0F0
F0F0
F0F0
F0F0
F0F0
FFF8
FFF8
FFF8
ENDCHAR
STARTCHAR 1EB6
ENCODING 7862
SWIDTH 560 0
DWIDTH 14 0
BBX 13 29 1 -7
BITMAP
1F80
1F00
0E00
0000
0F00
3FC0
7FC0
7FE0
F1E0
F0F0
F0F0
F0F0
F0F0
F0F0
F0F0
F0F0
F0F0
F0F0
F0F0
FFF8
FFF8
FFF8
0000
0000
0000
0F00
0F00
0F00
0600
ENDCHAR
STARTCHAR 1EB7
ENCODING 7863
SWIDTH 560 0
DWIDTH 14 0
BBX 13 29 1 -7
BITMAP
1F80
1F00
0E00
0000
0F00
3FC0
7FC0
7FE0
F1E0
F0F0
F0F0
F0F0
F0F0
F0F0
F0F0
F0F0
F0F0
F0F0
F0F0
FFF8
FFF8
FFF8
0000
0000
0000
0F00
0F00
0F00
0600
ENDCHAR
STARTCHAR 1EB8
ENCODING 7864
SWIDTH 520 0
DWIDTH 13 0
BBX 12 25 1 -7
BITMAP
7F80
7F80
7F80
7F80
7800
7800
7800
FFC0
FFC0
FFC0
FFC0
7800
7800
7800
7800
7FF0
7FF0
7FF0
0000
0000
0000
0700
0780
0780
0700
ENDCHAR
STARTCHAR 1EB9
ENCODING 7865
SWIDTH 520 0
DWIDTH 13 0
BBX 12 25 1 -7
BITMAP
7F80
7F80
7F80
7F80
7800
7800
7800
FFC0
FFC0
FFC0
FFC0
7800
7800
7800
7800
7FF0
7FF0
7FF0
0000
0000
0000
0700
0780
0780
0700
ENDCHAR
STARTCHAR 1EBA
ENCODING 7866
SWIDTH 520 0
DWIDTH 13 0
BBX 12 24 1 0
BITMAP
0C00
0C00
0C00
1C00
0C00
0000
7F80
7F80
7F80
7F80
7800
7800
7800
FFC0
FFC0
FFC0
FFC0
7800
7800
7800
7800
7FF0
7FF0
7FF0
ENDCHAR
STARTCHAR 1EBB
ENCODING 7867
SWIDTH 520 0
DWIDTH 13 0
BBX 12 24 1 0
BITMAP
0C00
0C00
0C00
1C00
0C00
0000
7F80
7F80
7F80
7F80
7800
7800
7800
FFC0
FFC0
FFC0
FFC0
7800
7800
7800
7800
7FF0
7FF0
7FF0
ENDCHAR
STARTCHAR 1EBC
ENCODING 7868
SWIDTH 520 0
DWIDTH 13 0
BBX 12 22 1 0
BITMAP
3F00
3F00
0000
0000
7F80
7F80
7F80
7F80
7800
7800
7800
FFC0
FFC0
FFC0
FFC0
7800
7800
7800
7800
7FF0
7FF0
7FF0
ENDCHAR
STARTCHAR 1EBD
ENCODING 7869
SWIDTH 520 0
DWIDTH 13 0
BBX 12 22 1 0
BITMAP
3F00
3F00
0000
0000
7F80
7F80
7F80
7F80
7800
7800
7800
FFC0
FFC0
FFC0
FFC0
7800
7800
7800
7800
7FF0
7FF0
7FF0
ENDCHAR
STARTCHAR 1EBE
ENCODING 7870
SWIDTH 520 0
DWIDTH 13 0
BBX 12 24 1 0
BITMAP
0060
00E0
0CC0
1E00
3F00
0000
7F80
7F80
7F80
7F80
7800
7800
7800
FFC0
FFC0
FFC0
FFC0
7800
7800
7800
7800
7FF0
7FF0
7FF0
ENDCHAR
STARTCHAR 1EBF
ENCODING 7871
SWIDTH 520 0
DWIDTH 13 0
BBX 12 24 1 0
BITMAP
0060
00E0
0CC0
1E00
3F00
0000
7F80
7F80
7F80
7F80
7800
7800
7800
FFC0
FFC0
FFC0
FFC0
7800
7800
7800
7800
7FF0
7FF0
7FF0
ENDCHAR
STARTCHAR 1EC0
ENCODING 7872
SWIDTH 520 0
DWIDTH 13 0
BBX 13 24 0 0
BITMAP
C000
E000
6600
0F00
1F80
0000
3FC0
3FC0
3FC0
3FC0
3C00
3C00
3C00
7FE0
7FE0
7FE0
7FE0
3C00
3C00
3C00
3C00
3FF8
3FF8
3FF8
ENDCHAR
STARTCHAR 1EC1
ENCODING 7873
SWIDTH 520 0
DWIDTH 13 0
BBX 13 24 0 0
BITMAP
C000
E000
6600
0F00
1F80
0000
3FC0
3FC0
3FC0
3FC0
3C00
3C00
3C00
7FE0
7FE0
7FE0
7FE0
3C00
3C00
3C00
3C00
3FF8
3FF8
3FF8
ENDCHAR
STARTCHAR 1EC2
ENCODING 7874
SWIDTH 520 0
DWIDTH 13 0
BBX 12 26 1 0
BITMAP
00C0
00C0
00C0
01C0
0CC0
1E00
3F00
0000
7F80
7F80
7F80
7F80
7800
7800
7800
FFC0
FFC0
FFC0
FFC0
7800
7800
7800
7800
7FF0
7FF0
7FF0
ENDCHAR
STARTCHAR 1EC3
ENCODING 7875
SWIDTH 520 0
DWIDTH 13 0
BBX 12 26 1 0
BITMAP
00C0
00C0
00C0
01C0
0CC0
1E00
3F00
0000
7F80
7F80
7F80
7F80
7800
7800
7800
FFC0
FFC0
FFC0
FFC0
7800
7800
7800
7800
7FF0
7FF0
7FF0
ENDCHAR
STARTCHAR 1EC4
ENCODING 7876
SWIDTH 520 0
DWIDTH 13 0
BBX 13 24 1 0
BITMAP
01F8
01F8
0C10
1E00
3F00
0000
7F80
7F80
7F80
7F80
7800
7800
7800
FFC0
FFC0
FFC0
FFC0
7800
7800
7800
7800
7FF0
7FF0
7FF0
ENDCHAR
STARTCHAR 1EC5
ENCODING 7877
SWIDTH 520 0
DWIDTH 13 0
BBX 13 24 1 0
BITMAP
01F8
01F8
0C10
1E00
3F00
0000
7F80
7F80
7F80
7F80
7800
7800
7800
FFC0
FFC0
FFC0
FFC0
7800
7800
7800
7800
7FF0
7FF0
7FF0
ENDCHAR
STARTCHAR 1EC6
ENCODING 7878
SWIDTH 520 0
DWIDTH 13 0
BBX 12 29 1 -6
BITMAP
0C00
1E00
3F00
0000
7F80
7F80
7F80
7F80
7800
7800
7800
FFC0
FFC0
FFC0
FFC0
7800
7800
7800
7800
7FF0
7FF0
7FF0
0000
0000
0000
0700
0780
0780
0700
ENDCHAR
STARTCHAR 1EC7
ENCODING 7879
SWIDTH 520 0
DWIDTH 13 0
BBX 12 29 1 -6
BITMAP
0C00
1E00
3F00
0000
7F80
7F80
7F80
7F80
7800
7800
7800
FFC0
FFC0
FFC0
FFC0
7800
7800
7800
7800
7FF0
7FF0
7FF0
0000
0000
0000
0700
0780
0780
0700
ENDCHAR
STARTCHAR 1EC8
ENCODING 7880
SWIDTH 240 0
DWIDTH 6 0
BBX 4 17 1 0
BITMAP
70
70
60
60
60
00
F0
F0
F0
F0
F0
F0
F0
F0
F0
F0
F0
ENDCHAR
STARTCHAR 1EC9
ENCODING 7881
SWIDTH 240 0
DWIDTH 6 0
BBX 4 17 1 0
BITMAP
70
70
60
60
60
00
F0
F0
F0
F0
F0
F0
F0
F0
F0
F0
F0
ENDCHAR
STARTCHAR 1ECA
ENCODING 7882
SWIDTH 240 0
DWIDTH 6 0
BBX 7 27 0 -7
BITMAP
20
30
FC
FE
78
78
48
00
00
78
78
78
78
78
78
78
78
78
78
78
00
00
00
78
78
78
30
ENDCHAR
STARTCHAR 1ECB
ENCODING 7883
SWIDTH 240 0
DWIDTH 6 0
BBX 7 27 0 -7
BITMAP
20
30
FC
FE
78
78
48
00
00
78
78
78
78
78
78
78
78
78
78
78
00
00
00
78
78
78
30
ENDCHAR
STARTCHAR 1ECC
ENCODING 7884
SWIDTH 800 0
DWIDTH 20 0
BBX 19 25 1 -7
BITMAP
03F000
0FFC00
1FFF00
3FFF80
7C0F80
7803C0
F003C0
F001E0
F001E0
F001E0
F001E0
F001C0
F803C0
7C07C0
3E1F80
3FFF00
0FFE00
07FC00
000000
000000
000000
00E000
01F000
01E000
00E000
ENDCHAR
STARTCHAR 1ECD
ENCODING 7885
SWIDTH 800 0
DWIDTH 20 0
BBX 19 25 1 -7
BITMAP
03F000
0FFC00
1FFF00
3FFF80
7C0F80
7803C0
F003C0
F001E0
F001E0
F001E0
F001E0
F001C0
F803C0
7C07C0
3E1F80
3FFF00
0FFE00
07FC00
000000
000000
000000
00E000
01F000
01E000
00E000
ENDCHAR
STARTCHAR 1ECE
ENCODING 7886
SWIDTH 800 0
DWIDTH 20 0
BBX 19 24 1 0
BITMAP
00C000
00E000
00C000
00C000
00C000
000000
03F000
0FFC00
1FFF00
3FFF80
7C0F80
7803C0
F003C0
F001E0
F001E0
F001E0
F001E0
F001C0
F803C0
7C07C0
3E1F80
3FFF00
0FFE00
07FC00
ENDCHAR
STARTCHAR 1ECF
ENCODING 7887
SWIDTH 800 0
DWIDTH 20 0
BBX 19 24 1 0
BITMAP
00C000
00E000
00C000
00C000
00C000
000000
03F000
0FFC00
1FFF00
3FFF80
7C0F80
7803C0
F003C0
F001E0
F001E0
F001E0
F001E0
F001C0
F803C0
7C07C0
3E1F80
3FFF00
0FFE00
07FC00
ENDCHAR
STARTCHAR 1ED0
ENCODING 7888
SWIDTH 800 0
DWIDTH 20 0
BBX 19 24 1 0
BITMAP
000700
004600
00EC00
01E000
03F000
000000
03F000
0FFC00
1FFF00
3FFF80
7C0F80
7803C0
F003C0
F001E0
F001E0
F001E0
F001E0
F001C0
F803C0
7C07C0
3E1F80
3FFF00
0FFE00
07FC00
ENDCHAR
STARTCHAR 1ED1
ENCODING 7889
SWIDTH 800 0
DWIDTH 20 0
BBX 19 24 1 0
BITMAP
000700
004600
00EC00
01E000
03F000
000000
03F000
0FFC00
1FFF00
3FFF80
7C0F80
7803C0
F003C0
F001E0
F001E0
F001E0
F001E0
F001C0
F803C0
7C07C0
3E1F80
3FFF00
0FFE00
07FC00
ENDCHAR
STARTCHAR 1ED2
ENCODING 7890
SWIDTH 800 0
DWIDTH 20 0
BBX 19 24 1 0
BITMAP
1C0000
0C4000
0EE000
01E000
03F000
000000
03F000
0FFC00
1FFF00
3FFF80
7C0F80
7803C0
F003C0
F001E0
F001E0
F001E0
F001E0
F001C0
F803C0
7C07C0
3E1F80
3FFF00
0FFE00
07FC00
ENDCHAR
STARTCHAR 1ED3
ENCODING 7891
SWIDTH 800 0
DWIDTH 20 0
BBX 19 24 1 0
BITMAP
1C0000
0C4000
0EE000
01E000
03F000
000000
03F000
0FFC00
1FFF00
3FFF80
7C0F80
7803C0
F003C0
F001E0
F001E0
F001E0
F001E0
F001C0
F803C0
7C07C0
3E1F80
3FFF00
0FFE00
07FC00
ENDCHAR
STARTCHAR 1ED4
ENCODING 7892
SWIDTH 800 0
DWIDTH 20 0
BBX 19 26 1 0
BITMAP
000C00
000E00
000C00
004C00
00EC00
01E000
03F000
000000
03F000
0FFC00
1FFF00
3FFF80
7C0F80
7803C0
F003C0
F001E0
F001E0
F001E0
F001E0
F001C0
F803C0
7C07C0
3E1F80
3FFF00
0FFE00
07FC00
ENDCHAR
STARTCHAR 1ED5
ENCODING 7893
SWIDTH 800 0
DWIDTH 20 0
BBX 19 26 1 0
BITMAP
000C00
000E00
000C00
004C00
00EC00
01E000
03F000
000000
03F000
0FFC00
1FFF00
3FFF80
7C0F80
7803C0
F003C0
F001E0
F001E0
F001E0
F001E0
F001C0
F803C0
7C07C0
3E1F80
3FFF00
0FFE00
07FC00
ENDCHAR
STARTCHAR 1ED6
ENCODING 7894
SWIDTH 800 0
DWIDTH 20 0
BBX 19 24 1 0
BITMAP
000FC0
004FC0
00E180
01E000
03F000
000000
03F000
0FFC00
1FFF00
3FFF80
7C0F80
7803C0
F003C0
F001E0
F001E0
F001E0
F001E0
F001C0
F803C0
7C07C0
3E1F80
3FFF00
0FFE00
07FC00
ENDCHAR
STARTCHAR 1ED7
ENCODING 7895
SWIDTH 800 0
DWIDTH 20 0
BBX 19 24 1 0
BITMAP
000FC0
004FC0
00E180
01E000
03F000
000000
03F000
0FFC00
1FFF00
3FFF80
7C0F80
7803C0
F003C0
F001E0
F001E0
F001E0
F001E0
F001C0
F803C0
7C07C0
3E1F80
3FFF00
0FFE00
07FC00
ENDCHAR
STARTCHAR 1ED8
ENCODING 7896
SWIDTH 800 0
DWIDTH 20 0
BBX 19 30 1 -7
BITMAP
004000
00E000
01E000
03F000
000000
03F000
0FFC00
1FFF00
3FFF80
7C0F80
7803C0
F003C0
F001E0
F001E0
F001E0
F001E0
F001C0
F803C0
7C07C0
3E1F80
3FFF00
0FFE00
07FC00
000000
000000
000000
00E000
01F000
01E000
00E000
ENDCHAR
STARTCHAR 1ED9
ENCODING 7897
SWIDTH 800 0
DWIDTH 20 0
BBX 19 30 1 -7
BITMAP
004000
00E000
01E000
03F000
000000
03F000
0FFC00
1FFF00
3FFF80
7C0F80
7803C0
F003C0
F001E0
F001E0
F001E0
F001E0
F001C0
F803C0
7C07C0
3E1F80
3FFF00
0FFE00
07FC00
000000
000000
000000
00E000
01F000
01E000
00E000
ENDCHAR
STARTCHAR 1EDA
ENCODING 7898
SWIDTH 800 0
DWIDTH 20 0
BBX 19 22 1 0
BITMAP
007000
006000
00E1C0
0001C0
03F1C0
0FFD80
1FFF00
3FFF80
7C0F80
7803C0
F003C0
F001E0
F001E0
F001E0
F001E0
F001C0
F803C0
7C07C0
3E1F80
3FFF00
0FFE00
07FC00
ENDCHAR
STARTCHAR 1EDB
ENCODING 7899
SWIDTH 800 0
DWIDTH 20 0
BBX 19 22 1 0
BITMAP
007000
006000
00E1C0
0001C0
03F1C0
0FFD80
1FFF00
3FFF80
7C0F80
7803C0
F003C0
F001E0
F001E0
F001E0
F001E0
F001C0
F803C0
7C07C0
3E1F80
3FFF00
0FFE00
07FC00
ENDCHAR
STARTCHAR 1EDC
ENCODING 7900
SWIDTH 800 0
DWIDTH 20 0
BBX 19 22 1 0
BITMAP
018000
00C000
00C1C0
0001C0
03F1C0
0FFD80
1FFF00
3FFF80
7C0F80
7803C0
F003C0
F001E0
F001E0
F001E0
F001E0
F001C0
F803C0
7C07C0
3E1F80
3FFF00
0FFE00
07FC00
ENDCHAR
STARTCHAR 1EDD
ENCODING 7901
SWIDTH 800 0
DWIDTH 20 0
BBX 19 22 1 0
BITMAP
018000
00C000
00C1C0
0001C0
03F1C0
0FFD80
1FFF00
3FFF80
7C0F80
7803C0
F003C0
F001E0
F001E0
F001E0
F001E0
F001C0
F803C0
7C07C0
3E1F80
3FFF00
0FFE00
07FC00
ENDCHAR
STARTCHAR 1EDE
ENCODING 7902
SWIDTH 800 0
DWIDTH 20 0
BBX 19 24 1 0
BITMAP
00C000
00E000
00C000
00C000
00C1C0
0001C0
03F1C0
0FFD80
1FFF00
3FFF80
7C0F80
7803C0
F003C0
F001E0
F001E0
F001E0
F001E0
F001C0
F803C0
7C07C0
3E1F80
3FFF00
0FFE00
07FC00
ENDCHAR
STARTCHAR 1EDF
ENCODING 7903
SWIDTH 800 0
DWIDTH 20 0
BBX 19 24 1 0
BITMAP
00C000
00E000
00C000
00C000
00C1C0
0001C0
03F1C0
0FFD80
1FFF00
3FFF80
7C0F80
7803C0
F003C0
F001E0
F001E0
F001E0
F001E0
F001C0
F803C0
7C07C0
3E1F80
3FFF00
0FFE00
07FC00
ENDCHAR
STARTCHAR 1EE0
ENCODING 7904
SWIDTH 800 0
DWIDTH 20 0
BBX 19 22 1 0
BITMAP
03F000
03F000
0001C0
0001C0
03F1C0
0FFD80
1FFF00
3FFF80
7C0F80
7803C0
F003C0
F001E0
F001E0
F001E0
F001E0
F001C0
F803C0
7C07C0
3E1F80
3FFF00
0FFE00
07FC00
ENDCHAR
STARTCHAR 1EE1
ENCODING 7905
SWIDTH 800 0
DWIDTH 20 0
BBX 19 22 1 0
BITMAP
03F000
03F000
0001C0
0001C0
03F1C0
0FFD80
1FFF00
3FFF80
7C0F80
7803C0
F003C0
F001E0
F001E0
F001E0
F001E0
F001C0
F803C0
7C07C0
3E1F80
3FFF00
0FFE00
07FC00
ENDCHAR
STARTCHAR 1EE2
ENCODING 7906
SWIDTH 800 0
DWIDTH 20 0
BBX 19 27 1 -7
BITMAP
0001C0
0001C0
03F1C0
0FFD80
1FFF00
3FFF80
7C0F80
7803C0
F003C0
F001E0
F001E0
F001E0
F001E0
F001C0
F803C0
7C07C0
3E1F80
3FFF00
0FFE00
07FC00
000000
000000
000000
00E000
01F000
01E000
00E000
ENDCHAR
STARTCHAR 1EE3
ENCODING 7907
SWIDTH 800 0
DWIDTH 20 0
BBX 19 27 1 -7
BITMAP
0001C0
0001C0
03F1C0
0FFD80
1FFF00
3FFF80
7C0F80
7803C0
F003C0
F001E0
F001E0
F001E0
F001E0
F001C0
F803C0
7C07C0
3E1F80
3FFF00
0FFE00
07FC00
000000
000000
000000
00E000
01F000
01E000
00E000
ENDCHAR
STARTCHAR 1EE4
ENCODING 7908
SWIDTH 520 0
DWIDTH 13 0
BBX 11 25 1 -7
BITMAP
F0E0
F0E0
F0E0
F0E0
F0E0
F0E0
F0E0
F0E0
F0E0
F0E0
F0E0
F0E0
F0E0
F0E0
F9E0
7FE0
3FC0
1F80
0000
0000
0000
0F00
0F00
0F00
0600
ENDCHAR
STARTCHAR 1EE5
ENCODING 7909
SWIDTH 520 0
DWIDTH 13 0
BBX 11 25 1 -7
BITMAP
F0E0
F0E0
F0E0
F0E0
F0E0
F0E0
F0E0
F0E0
F0E0
F0E0
F0E0
F0E0
F0E0
F0E0
F9E0
7FE0
3FC0
1F80
0000
0000
0000
0F00
0F00
0F00
0600
ENDCHAR
STARTCHAR 1EE6
ENCODING 7910
SWIDTH 520 0
DWIDTH 13 0
BBX 11 24 1 0
BITMAP
0600
0600
0600
0E00
0E00
0000
F0E0
F0E0
F0E0
F0E0
F0E0
F0E0
F0E0
F0E0
F0E0
F0E0
F0E0
F0E0
F0E0
F0E0
F9E0
7FE0
3FC0
1F80
ENDCHAR
STARTCHAR 1EE7
ENCODING 7911
SWIDTH 520 0
DWIDTH 13 0
BBX 11 24 1 0
BITMAP
0600
0600
0600
0E00
0E00
0000
F0E0
F0E0
F0E0
F0E0
F0E0
F0E0
F0E0
F0E0
F0E0
F0E0
F0E0
F0E0
F0E0
F0E0
F9E0
7FE0
3FC0
1F80
ENDCHAR
STARTCHAR 1EE8
ENCODING 7912
SWIDTH 520 0
DWIDTH 13 0
BBX 15 22 1 0
BITMAP
0300
0700
060E
000C
F0EC
F0EC
F0E0
F0E0
F0E0
F0E0
F0E0
F0E0
F0E0
F0E0
F0E0
F0E0
F0E0
F0E0
F9E0
7FE0
3FC0
1F80
ENDCHAR
STARTCHAR 1EE9
ENCODING 7913
SWIDTH 520 0
DWIDTH 13 0
BBX 15 22 1 0
BITMAP
0300
0700
060E
000C
F0EC
F0EC
F0E0
F0E0
F0E0
F0E0
F0E0
F0E0
F0E0
F0E0
F0E0
F0E0
F0E0
F0E0
F9E0
7FE0
3FC0
1F80
ENDCHAR
STARTCHAR 1EEA
ENCODING 7914
SWIDTH 520 0
DWIDTH 13 0
BBX 15 22 1 0
BITMAP
1C00
0C00
060E
000C
F0EC
F0EC
F0E0
F0E0
F0E0
F0E0
F0E0
F0E0
F0E0
F0E0
F0E0
F0E0
F0E0
F0E0
F9E0
7FE0
3FC0
1F80
ENDCHAR
STARTCHAR 1EEB
ENCODING 7915
SWIDTH 520 0
DWIDTH 13 0
BBX 15 22 1 0
BITMAP
1C00
0C00
060E
000C
F0EC
F0EC
F0E0
F0E0
F0E0
F0E0
F0E0
F0E0
F0E0
F0E0
F0E0
F0E0
F0E0
F0E0
F9E0
7FE0
3FC0
1F80
ENDCHAR
STARTCHAR 1EEC
ENCODING 7916
SWIDTH 520 0
DWIDTH 13 0
BBX 15 24 1 0
BITMAP
0600
0600
0600
0E00
0E0E
000C
F0EC
F0EC
F0E0
F0E0
F0E0
F0E0
F0E0
F0E0
F0E0
F0E0
F0E0
F0E0
F0E0
F0E0
F9E0
7FE0
3FC0
1F80
ENDCHAR
STARTCHAR 1EED
ENCODING 7917
SWIDTH 520 0
DWIDTH 13 0
BBX 15 24 1 0
BITMAP
0600
0600
0600
0E00
0E0E
000C
F0EC
F0EC
F0E0
F0E0
F0E0
F0E0
F0E0
F0E0
F0E0
F0E0
F0E0
F0E0
F0E0
F0E0
F9E0
7FE0
3FC0
1F80
ENDCHAR
STARTCHAR 1EEE
ENCODING 7918
SWIDTH 520 0
DWIDTH 13 0
BBX 15 22 1 0
BITMAP
3F00
3F00
000E
000C
F0EC
F0EC
F0E0
F0E0
F0E0
F0E0
F0E0
F0E0
F0E0
F0E0
F0E0
F0E0
F0E0
F0E0
F9E0
7FE0
3FC0
1F80
ENDCHAR
STARTCHAR 1EEF
ENCODING 7919
SWIDTH 520 0
DWIDTH 13 0
BBX 15 22 1 0
BITMAP
3F00
3F00
000E
000C
F0EC
F0EC
F0E0
F0E0
F0E0
F0E0
F0E0
F0E0
F0E0
F0E0
F0E0
F0E0
F0E0
F0E0
F9E0
7FE0
3FC0
1F80
ENDCHAR
STARTCHAR 1EF0
ENCODING 7920
SWIDTH 520 0
DWIDTH 13 0
BBX 15 27 1 -7
BITMAP
000E
000C
F0EC
F0EC
F0E0
F0E0
F0E0
F0E0
F0E0
F0E0
F0E0
F0E0
F0E0
F0E0
F0E0
F0E0
F9E0
7FE0
3FC0
1F80
0000
0000
0000
0F00
0F00
0F00
0600
ENDCHAR
STARTCHAR 1EF1
ENCODING 7921
SWIDTH 520 0
DWIDTH 13 0
BBX 15 27 1 -7
BITMAP
000E
000C
F0EC
F0EC
F0E0
F0E0
F0E0
F0E0
F0E0
F0E0
F0E0
F0E0
F0E0
F0E0
F0E0
F0E0
F9E0
7FE0
3FC0
1F80
0000
0000
0000
0F00
0F00
0F00
0600
ENDCHAR
STARTCHAR 1EF2
ENCODING 7922
SWIDTH 520 0
DWIDTH 13 0
BBX 11 22 1 0
BITMAP
1C00
0C00
0600
0000
F0E0
F0E0
F0E0
F0E0
F0E0
F0E0
F0E0
F0E0
F0E0
F1E0
FBE0
7FC0
3FC0
1F00
0F00
0F00
0F00
0F00
ENDCHAR
STARTCHAR 1EF3
ENCODING 7923
SWIDTH 520 0
DWIDTH 13 0
BBX 11 22 1 0
BITMAP
1C00
0C00
0600
0000
F0E0
F0E0
F0E0
F0E0
F0E0
F0E0
F0E0
F0E0
F0E0
F1E0
FBE0
7FC0
3FC0
1F00
0F00
0F00
0F00
0F00
ENDCHAR
STARTCHAR 1EF4
ENCODING 7924
SWIDTH 520 0
DWIDTH 13 0
BBX 11 25 1 -7
BITMAP
F0E0
F0E0
F0E0
F0E0
F0E0
F0E0
F0E0
F0E0
F0E0
F1E0
FBE0
7FC0
3FC0
1F00
0F00
0F00
0F00
0F00
0000
0000
0000
0E00
0F00
0F00
0600
ENDCHAR
STARTCHAR 1EF5
ENCODING 7925
SWIDTH 520 0
DWIDTH 13 0
BBX 11 25 1 -7
BITMAP
F0E0
F0E0
F0E0
F0E0
F0E0
F0E0
F0E0
F0E0
F0E0
F1E0
FBE0
7FC0
3FC0
1F00
0F00
0F00
0F00
0F00
0000
0000
0000
0E00
0F00
0F00
0600
ENDCHAR
STARTCHAR 1EF6
ENCODING 7926
SWIDTH 520 0
DWIDTH 13 0
BBX 11 24 1 0
BITMAP
0600
0600
0600
0C00
0E00
0000
F0E0
F0E0
F0E0
F0E0
F0E0
F0E0
F0E0
F0E0
F0E0
F1E0
FBE0
7FC0
3FC0
1F00
0F00
0F00
0F00
0F00
ENDCHAR
STARTCHAR 1EF7
ENCODING 7927
SWIDTH 520 0
DWIDTH 13 0
BBX 11 24 1 0
BITMAP
0600
0600
0600
0C00
0E00
0000
F0E0
F0E0
F0E0
F0E0
F0E0
F0E0
F0E0
F0E0
F0E0
F1E0
FBE0
7FC0
3FC0
1F00
0F00
0F00
0F00
0F00
ENDCHAR
STARTCHAR 1EF8
ENCODING 7928
SWIDTH 520 0
DWIDTH 13 0
BBX 11 22 1 0
BITMAP
3F00
3F00
0000
0000
F0E0
F0E0
F0E0
F0E0
F0E0
F0E0
F0E0
F0E0
F0E0
F1E0
FBE0
7FC0
3FC0
1F00
0F00
0F00
0F00
0F00
ENDCHAR
STARTCHAR 1EF9
ENCODING 7929
SWIDTH 520 0
DWIDTH 13 0
BBX 11 22 1 0
BITMAP
3F00
3F00
0000
0000
F0E0
F0E0
F0E0
F0E0
F0E0
F0E0
F0E0
F0E0
F0E0
F1E0
FBE0
7FC0
3FC0
1F00
0F00
0F00
0F00
0F00
ENDCHAR
STARTCHAR 2013
ENCODING 8211
SWIDTH 560 0
DWIDTH 14 0
BBX 12 2 1 5
BITMAP
FFF0
FFF0
ENDCHAR
STARTCHAR 2014
ENCODING 8212
SWIDTH 840 0
DWIDTH 21 0
BBX 19 2 1 5
BITMAP
FFFFE0
FFFFE0
ENDCHAR
STARTCHAR 2018
ENCODING 8216
SWIDTH 240 0
DWIDTH 6 0
BBX 3 5 2 13
BITMAP
60
60
E0
E0
E0
ENDCHAR
STARTCHAR 2019
ENCODING 8217
SWIDTH 240 0
DWIDTH 6 0
BBX 3 5 2 13
BITMAP
E0
E0
E0
C0
C0
ENDCHAR
STARTCHAR 201A
ENCODING 8218
SWIDTH 240 0
DWIDTH 6 0
BBX 3 5 2 -3
BITMAP
E0
E0
C0
C0
C0
ENDCHAR
STARTCHAR 201C
ENCODING 8220
SWIDTH 440 0
DWIDTH 11 0
BBX 8 5 2 13
BITMAP
63
67
67
E6
EE
ENDCHAR
STARTCHAR 201D
ENCODING 8221
SWIDTH 440 0
DWIDTH 11 0
BBX 8 5 2 13
BITMAP
E7
E7
E6
CE
CC
ENDCHAR
STARTCHAR 201E
ENCODING 8222
SWIDTH 440 0
DWIDTH 11 0
BBX 8 5 2 -3
BITMAP
E7
E7
C7
C6
C6
ENDCHAR
STARTCHAR 2020
ENCODING 8224
SWIDTH 400 0
DWIDTH 10 0
BBX 9 13 1 5
BITMAP
1C00
1C00
FF80
FF80
FF80
1C00
1C00
1C00
1C00
1C00
1C00
1C00
1C00
ENDCHAR
STARTCHAR 2021
ENCODING 8225
SWIDTH 400 0
DWIDTH 10 0
BBX 9 12 1 6
BITMAP
1C00
1C00
FF80
FF80
FF80
1C00
1C00
1C00
FF80
FF80
1C00
1C00
ENDCHAR
STARTCHAR 2022
ENCODING 8226
SWIDTH 320 0
DWIDTH 8 0
BBX 6 6 1 4
BITMAP
38
7C
FC
FC
7C
38
ENDCHAR
STARTCHAR 2026
ENCODING 8230
SWIDTH 720 0
DWIDTH 18 0
BBX 16 4 1 0
BITMAP
71C7
7BCF
FBEF
71C7
ENDCHAR
STARTCHAR 2030
ENCODING 8240
SWIDTH 1360 0
DWIDTH 34 0
BBX 32 18 1 0
BITMAP
1E00C000
3F01C000
7F838000
73830000
E1C70000
738E0000
7F9C0000
3F1C0000
1E380000
00700000
0063F07E
00E7F8FF
01C739E7
018E1DC7
038E1DC7
070739EF
0E07F8FE
0E03F07C
ENDCHAR
STARTCHAR 2039
ENCODING 8249
SWIDTH 400 0
DWIDTH 10 0
BBX 8 11 1 2
BITMAP
0E
1E
1C
38
70
F0
78
38
1C
0E
0F
ENDCHAR
STARTCHAR 203A
ENCODING 8250
SWIDTH 400 0
DWIDTH 10 0
BBX 7 11 2 2
BITMAP
E0
70
78
3C
1C
0E
1C
38
78
70
E0
ENDCHAR
STARTCHAR 2044
ENCODING 8260
SWIDTH 680 0
DWIDTH 17 0
BBX 14 18 2 0
BITMAP
000C
001C
0038
0070
0070
00E0
01C0
0180
0380
0700
0600
0E00
1C00
3800
3800
7000
E000
C000
ENDCHAR
STARTCHAR 20AC
ENCODING 8364
SWIDTH 640 0
DWIDTH 16 0
BBX 14 18 1 0
BITMAP
007C
01FC
03FC
07FC
0F80
1F00
FFF0
FFF0
FFF0
1C00
FFF0
FFF0
1E00
0F00
0FC4
07FC
03FC
00FC
ENDCHAR
STARTCHAR 2122
ENCODING 8482
SWIDTH 840 0
DWIDTH 21 0
BBX 19 10 1 8
BITMAP
FF0860
FF8E60
FFEF60
39FFE0
39FFE0
39DEE0
39CE60
39CE60
39CE60
39CE60
ENDCHAR
STARTCHAR 2190
ENCODING 8592
SWIDTH 800 0
DWIDTH 20 0
BBX 17 12 2 3
BITMAP
060000
0F0000
1E0000
3C0000
7FFF80
FFFF80
FFFF80
780000
3C0000
1E0000
0F0000
060000
ENDCHAR
STARTCHAR 2191
ENCODING 8593
SWIDTH 640 0
DWIDTH 16 0
BBX 13 18 2 0
BITMAP
0200
0700
0F80
1FC0
3FE0
77F0
E778
C730
0700
0700
0700
0700
0700
0F00
0F00
0F00
0F00
0F00
ENDCHAR
STARTCHAR 2192
ENCODING 8594
SWIDTH 800 0
DWIDTH 20 0
BBX 18 12 1 3
BITMAP
001800
003C00
001E00
000F00
FFFF80
FFFFC0
FFFFC0
000780
000F00
001E00
003C00
001800
ENDCHAR
STARTCHAR 2193
ENCODING 8595
SWIDTH 640 0
DWIDTH 16 0
BBX 12 18 2 -1
BITMAP
0F00
0F00
0F00
0F00
0F00
0F00
0F00
0F00
0700
0700
4720
E770
F7F0
7FE0
3FC0
1F80
0F00
0600
ENDCHAR
STARTCHAR 2194
ENCODING 8596
SWIDTH 920 0
DWIDTH 23 0
BBX 20 12 2 3
BITMAP
060600
0F0F00
1E0780
3C03C0
7FFFE0
FFFFF0
FFFFF0
7801E0
3C03C0
1E0780
0F0F00
060600
ENDCHAR
STARTCHAR 2195
ENCODING 8597
SWIDTH 680 0
DWIDTH 17 0
BBX 14 18 2 -1
BITMAP
0300
0780
0FC0
3FF0
7FF8
F73C
E71C
0708
0700
0700
0700
C708
E73C
FF7C
3FF0
1FE0
0FC0
0300
ENDCHAR
STARTCHAR 2196
ENCODING 8598
SWIDTH 640 0
DWIDTH 16 0
BBX 14 13 1 2
BITMAP
FFC0
FFC0
F800
FC00
FF00
EF80
E7C0
E3E0
E1F0
00F8
007C
003C
0018
ENDCHAR
STARTCHAR 2197
ENCODING 8599
SWIDTH 640 0
DWIDTH 16 0
BBX 13 13 2 2
BITMAP
0FF8
0FF8
00F8
01F8
03D8
0798
0F98
1F18
3E18
7C00
F800
F000
6000
ENDCHAR
STARTCHAR 2198
ENCODING 8600
SWIDTH 640 0
DWIDTH 16 0
BBX 13 13 2 2
BITMAP
6000
F000
F000
7800
3C18
1E18
0F18
0798
03D8
01F8
00F8
0FF8
0FF8
ENDCHAR
STARTCHAR 2199
ENCODING 8601
SWIDTH 640 0
DWIDTH 16 0
BBX 14 13 1 2
BITMAP
0018
003C
007C
00F8
E1F0
E3E0
E7C0
EF80
FF00
FE00
FC00
FFC0
FFC0
ENDCHAR
STARTCHAR 2202
ENCODING 8706
SWIDTH 600 0
DWIDTH 15 0
BBX 13 19 1 0
BITMAP
0C00
0F00
1F80
0FC0
07E0
01F0
00F0
0078
1FF8
3FF8
7FF8
78F8
F878
F078
F0F8
79F0
7FF0
3FE0
1FC0
ENDCHAR
STARTCHAR 2205
ENCODING 8709
SWIDTH 720 0
DWIDTH 18 0
BBX 15 16 2 1
BITMAP
0380
1FE6
3C7C
701C
E03C
C066
C0C6
C186
C306
C606
CC06
F80C
701C
7878
DFE0
8100
ENDCHAR
STARTCHAR 220F
ENCODING 8719
SWIDTH 640 0
DWIDTH 16 0
BBX 14 21 1 -3
BITMAP
FFFC
FFFC
FFFC
3878
3878
3878
3878
3878
3878
3878
3878
3878
3878
3878
3878
3878
3878
3878
3878
3878
3878
ENDCHAR
STARTCHAR 2211
ENCODING 8721
SWIDTH 480 0
DWIDTH 12 0
BBX 11 21 1 -3
BITMAP
FFE0
FFE0
FFE0
7800
7800
3C00
1C00
1E00
0E00
0F00
0700
0F00
1E00
1C00
3C00
3800
7800
7000
FFE0
FFE0
FFE0
ENDCHAR
STARTCHAR 2212
ENCODING 8722
SWIDTH 560 0
DWIDTH 14 0
BBX 12 3 1 7
BITMAP
FFF0
FFF0
FFF0
ENDCHAR
STARTCHAR 221A
ENCODING 8730
SWIDTH 720 0
DWIDTH 18 0
BBX 16 21 1 -3
BITMAP
003F
003F
003F
0078
0070
0070
00F0
00E0
00E0
00E0
F1E0
71C0
79C0
39C0
3B80
3F80
1F80
1F80
1F00
0F00
0F00
ENDCHAR
STARTCHAR 221E
ENCODING 8734
SWIDTH 840 0
DWIDTH 21 0
BBX 19 8 1 5
BITMAP
3F0F80
7F9FC0
63F8E0
E0F060
E0F060
61F8E0
7FBFC0
3F0F80
ENDCHAR
STARTCHAR 222B
ENCODING 8747
SWIDTH 520 0
DWIDTH 13 0
BBX 11 21 1 -3
BITMAP
00E0
03E0
03C0
0780
0700
0700
0700
0700
0700
0F00
0E00
0E00
0E00
0E00
0E00
1C00
1C00
1C00
7C00
F800
F000
ENDCHAR
STARTCHAR 2248
ENCODING 8776
SWIDTH 560 0
DWIDTH 14 0
BBX 12 9 1 4
BITMAP
7000
FFF0
FFF0
03F0
0000
0000
FF30
FFF0
FFF0
ENDCHAR
STARTCHAR 2260
ENCODING 8800
SWIDTH 560 0
DWIDTH 14 0
BBX 12 14 1 1
BITMAP
01C0
0380
0380
FFF0
FFF0
FFF0
0600
0E00
FFF0
FFF0
FFF0
1C00
3800
3800
ENDCHAR
STARTCHAR 2264
ENCODING 8804
SWIDTH 560 0
DWIDTH 14 0
BBX 12 11 1 3
BITMAP
01F0
3FF0
FF80
F800
FFC0
1FF0
00F0
0000
FFF0
FFF0
FFF0
ENDCHAR
STARTCHAR 2265
ENCODING 8805
SWIDTH 560 0
DWIDTH 14 0
BBX 12 12 1 2
BITMAP
8000
FC00
FFC0
1FF0
00F0
1FF0
FFC0
F800
0000
FFF0
FFF0
FFF0
ENDCHAR
STARTCHAR 25CA
ENCODING 9674
SWIDTH 520 0
DWIDTH 13 0
BBX 10 14 2 2
BITMAP
1E00
3E00
3F00
7700
7380
E380
E1C0
E1C0
E380
7380
7700
3F00
3E00
1E00
ENDCHAR
ENDFONT
